<svg id="Layer_1" data-name="Layer 1" xmlns="http://www.w3.org/2000/svg" viewBox="0 0 359 157"><title>logo_udemArtboard 1 copy</title><path d="M303.25,76.67V96.41l0,.75-.75,0H293l-.76,0,.05-.75v-18c0-5.25-3-7.76-6.75-7.76s-6.75,2.51-6.75,7.76v18l0,.75-.75,0h-9.58l-.76,0,.05-.75v-18a17.74,17.74,0,0,1,28.78-13.9l.21.65.21-.63c.32-.34.64-.66,1-1l.65-.15-.6-.28a16.41,16.41,0,0,1-4.22-11V12.75L293.7,12l.76.05H304l.75-.05,0,.75V52.13c0,4.27,2.46,6.31,5.49,6.31s5.49-2,5.49-6.31V12.75l0-.75.75.05H326l.76-.05,0,.75V52.13a16.41,16.41,0,0,1-4.22,11l-.6.28.65.15c.33.31.66.63,1,1l.21.63.21-.65a17.74,17.74,0,0,1,28.78,13.9v18l0,.75-.76,0h-9.58l-.75,0,0-.75v-18c0-5.25-3-7.76-6.75-7.76s-6.75,2.51-6.75,7.76v18l0,.75-.76,0h-9.58l-.75,0,0-.75V76.67c0-5.44-3.13-8-7-8s-7,2.6-7,8"/><path d="M87.36,141a8.85,8.85,0,0,1-5.77,2.06c-3.47,0-6.44-2.52-6.44-9.35,0-7,2.43-10.3,6.38-10.3a7.41,7.41,0,0,1,5.83,2.38V141Zm0,4.69H97.49v-1.06l-3.75-.9V109.27H83.33v1.18l4,1.12v11.65a12.32,12.32,0,0,0-8-2.7c-6.33,0-11,5.55-11,13.27,0,7.91,4.27,12.49,11,12.49a11.7,11.7,0,0,0,8-3v2.46"/><polyline points="182.67 109.27 182.67 110.39 178.86 111.39 178.86 143.59 182.67 144.6 182.67 145.72 166.84 145.72 166.84 144.55 171.92 143.59 171.92 117.95 160.08 145.72 157.34 145.72 145.71 117.83 145.71 143.59 150.6 144.43 150.6 145.72 139.16 145.72 139.16 144.6 142.4 143.65 142.4 111.34 139.16 110.39 139.16 109.27 149.35 109.27 160.68 137.17 172.33 109.27 182.67 109.27"/><path d="M198.58,122.31c4.36,0,6.66,4.88,6.66,11s-2.3,11.14-6.66,11.14-6.67-5-6.67-11.14,2.35-11,6.67-11Zm0-1.79c-7.17,0-13.61,5-13.61,12.88,0,7.67,6.49,12.88,13.61,12.88s13.66-5.21,13.66-12.88c0-7.89-6.5-12.88-13.66-12.88"/><path d="M330.43,141.63a7.33,7.33,0,0,1-4.42,1.68c-3.25.06-4.15-2-4.15-4.31s1.63-4,4.59-4.53l4-.45v7.61Zm0-13.49v4.2l-5.65.28c-5.49.17-8.91,3.13-8.91,7.22s3.08,6.44,7.17,6.44a12.27,12.27,0,0,0,7.39-2.8v2.24h9.28v-1.06l-3-.9V127.07c0-3.64-2.41-6.55-7.84-6.55a25.5,25.5,0,0,0-11,2.41v5.77h2.77l.92-4.8a10.78,10.78,0,0,1,5.1-.63c3.3.27,3.7,2.57,3.75,4.87"/><polyline points="356.48 144.66 356.48 145.72 342.59 145.72 342.59 144.66 346.34 143.76 346.34 111.4 342.59 110.45 342.59 109.27 352.73 109.27 352.73 143.76 356.48 144.66"/><path d="M35.45,62.9,30,61.83V60.66h12.6v1.12L38.76,62.9V85c0,9.17-5,12.89-15.25,12.89-10.5,0-14.76-4-14.76-12.32V62.73L5,61.78V60.66H21.13v1.23l-5.49,1V85.19c0,6.76,2.3,10.08,9.35,10.08,7.65,0,10.46-3.45,10.46-10.7V62.9"/><path d="M57.15,96.05v1.06H43.54V96.05l3.7-.9V74.32l-3.36-.95V72.2h9.74V76c1.12-1,4.65-4.09,9.18-4.09,4.71,0,7.12,2.63,7.12,7.23v16L73.5,96v1.12H60.28V96l3.31-.84V79.86c0-2.4-.73-4.53-3.75-4.53-2.69,0-5.44,1.9-6.22,2.41V95.15l3.53.9"/><polyline points="85.86 95.15 89.55 96.05 89.55 97.11 75.72 97.11 75.72 96.05 79.47 95.15 79.47 74.32 76.11 73.37 76.11 72.2 85.86 72.2 85.86 95.15"/><path d="M86.19,63.62A3.62,3.62,0,0,1,82.5,67.1a3.66,3.66,0,0,1-3.7-3.48,3.7,3.7,0,0,1,3.7-3.52,3.66,3.66,0,0,1,3.69,3.52"/><polyline points="195.85 95.15 199.55 96.05 199.55 97.11 185.72 97.11 185.72 96.05 189.47 95.15 189.47 74.32 186.11 73.37 186.11 72.2 195.85 72.2 195.85 95.15"/><path d="M196.19,63.62a3.62,3.62,0,0,1-3.7,3.48,3.66,3.66,0,0,1-3.7-3.48,3.7,3.7,0,0,1,3.7-3.52,3.66,3.66,0,0,1,3.7,3.52"/><polyline points="91.57 73.93 89.78 73.2 89.78 72.2 101.88 72.2 101.88 73.2 98.01 74.16 103.57 89.33 109.08 74.04 105.72 73.2 105.72 72.2 114 72.2 114 73.2 111.99 74.16 102.5 97.5 100.43 97.5 91.57 73.93"/><path d="M131.57,81.15h-9.91c.56-4.25,2.24-7.39,5.2-7.39,3.36,0,4.48,3.92,4.71,7.39Zm-10.19,2h16.46c-.17-6.88-3.75-11.2-11-11.2s-12.37,6.16-12.37,12.88c0,7.79,5.1,12.88,12.43,12.88a17.4,17.4,0,0,0,11.42-3.86l-1.06-1.68a14.47,14.47,0,0,1-9.18,2.58c-4.82-.34-7.23-5.38-6.72-11.6"/><path d="M180.71,73.2l-.56,6.11h-2.3l-.56-4.15a7.59,7.59,0,0,0-4.42-1.4c-2,0-3.59,1.07-3.59,3.25,0,2.58,2.86,3.59,5.72,4.87s7.22,2.86,7.22,7.28c0,5-4.14,8.51-9.13,8.51A22,22,0,0,1,165,96.33l-.45-6.78,2.35-.22,1.35,4.59A7.9,7.9,0,0,0,173,95.83c3.19,0,4.7-1.68,4.7-4.09,0-2.86-4-4.09-6.61-5.32-2.46-1.18-6.27-2.24-6.27-7.34,0-4.2,3.47-7.17,8.18-7.17a23.29,23.29,0,0,1,7.67,1.29"/><polyline points="241.98 63.96 239.57 60.38 231 67.1 232.4 69.11 241.98 63.96"/><path d="M237.27,81.15h-9.91c.56-4.25,2.24-7.39,5.21-7.39,3.36,0,4.48,3.92,4.7,7.39Zm-10.19,2h16.47c-.17-6.88-3.76-11.2-11-11.2S220.2,78.07,220.2,84.79c0,7.79,5.09,12.88,12.43,12.88a17.4,17.4,0,0,0,11.42-3.86L243,92.13a14.5,14.5,0,0,1-9.19,2.58c-4.81-.34-7.22-5.38-6.72-11.6"/><path d="M158.92,72c-3.59,0-6.17,2.88-7.63,6.12h-.12V72.2H141v1l3.75,1.09V95.15l-3.75.9v1.06H156.6V95.88L151.17,95V80.84c1.49-3.27,3.68-4.59,5.08-4.59a2.84,2.84,0,0,1,2.25.9,2.45,2.45,0,0,0,2,.25,2.53,2.53,0,0,0,1.55-2.72A3,3,0,0,0,158.92,72"/><path d="M228.36,144.66v1.06H214.75v-1.06l3.7-.9V122.93l-3.36-1v-1.17h9.74v3.8c1.12-1,4.65-4.09,9.18-4.09,4.71,0,7.12,2.63,7.12,7.23v16l3.58.89v1.12H231.5V144.6l3.3-.84V128.47c0-2.4-.73-4.53-3.75-4.53-2.69,0-5.43,1.9-6.22,2.41v17.41l3.53.9"/><path d="M284.27,120.56c-3.59,0-6.17,2.88-7.63,6.12h-.12v-5.87H266.39v1l3.75,1.09v20.83l-3.75.9v1.06H282v-1.23l-5.44-.9V129.45c1.49-3.27,3.69-4.6,5.08-4.6a2.85,2.85,0,0,1,2.25.91,2.46,2.46,0,0,0,2,.25,2.53,2.53,0,0,0,1.55-2.72,3,3,0,0,0-3.13-2.73"/><path d="M218.25,94.32a5.56,5.56,0,0,1-3.32,1.08c-2.25,0-3-1.64-3-5.33V74.38l6.38-.95V72.2H212V60.66h-2.08c-.43,6.6-2.76,10.94-8.65,11.54h-1v1.23l5.32.95v16c0,5.09,1.23,7.27,6,7.27a11.38,11.38,0,0,0,7.3-2.35l-.62-1"/><path d="M263.48,142.93a5.62,5.62,0,0,1-3.31,1.08c-2.25,0-3-1.64-3-5.33V123l6.39-.95v-1.23h-6.39V109.27h-2.08c-.42,6.6-2.76,10.93-8.65,11.54h-1V122l5.32.95v16c0,5.09,1.23,7.27,6,7.27a11.38,11.38,0,0,0,7.3-2.35l-.62-1"/><path d="M116.44,129.76h-9.92c.56-4.25,2.24-7.39,5.21-7.39,3.36,0,4.48,3.92,4.71,7.39Zm-10.2,2h16.47c-.17-6.89-3.75-11.2-11-11.2s-12.37,6.16-12.37,12.88c0,7.79,5.09,12.88,12.43,12.88a17.4,17.4,0,0,0,11.42-3.86l-1.06-1.68a14.51,14.51,0,0,1-9.19,2.57c-4.81-.33-7.22-5.37-6.72-11.59"/><path d="M305.06,129.76h-9.91c.56-4.25,2.24-7.39,5.21-7.39,3.36,0,4.48,3.92,4.7,7.39Zm4.7-17.19-2.4-3.58-8.57,6.72,1.4,2,9.57-5.15Zm-14.89,19.15h16.46c-.17-6.89-3.75-11.2-11-11.2S288,126.68,288,133.4c0,7.78,5.1,12.88,12.43,12.88a17.46,17.46,0,0,0,11.43-3.86l-1.07-1.68a14.54,14.54,0,0,1-9.18,2.57c-4.82-.33-7.23-5.37-6.72-11.59"/></svg>