<svg xmlns="http://www.w3.org/2000/svg" width="421" height="23" fill="currentColor">
    <path d="M22.622 2.176v.002l.002-.002h-.002Zm4.66 12.743c.13-.115 3.943-3.324 3.943-3.324l-.382-.18-.243-.115c-.375-.172-.317-.48-.258-.689l.687-2.35s-1.645.36-2.03.417c-.306.047-.412-.091-.506-.298C28.4 8.175 28 7.236 28 7.236s-2.015 2.17-2.058 2.211c-.387.342-.764.08-.694-.32.064-.367 1.035-4.707 1.035-4.707l-1.424.824c-.353.207-.541.172-.728-.16-.188-.332-1.5-2.89-1.508-2.906-.009.015-1.32 2.574-1.507 2.906-.188.332-.377.367-.73.16l-1.422-.824s.97 4.34 1.035 4.707c.07.4-.307.664-.694.32a657.22 657.22 0 0 1-2.058-2.211s-.4.94-.495 1.144c-.093.207-.2.345-.505.298-.384-.059-2.096-.416-2.096-.416s.694 2.143.752 2.35c.06.206.118.516-.259.688l-.241.115-.382.18s3.813 3.209 3.943 3.324c.128.114.375.217.187.764-.187.549-.459 1.296-.459 1.296s3.529-.7 3.906-.78c.375-.08.694.045.694.412s-.154 4.04-.154 4.04h.969s-.154-3.673-.154-4.04.318-.492.694-.412c.376.08 3.904.78 3.904.78s-.27-.746-.459-1.296c-.188-.549.06-.65.189-.764h.001ZM45.368.29H34.166v22.377h11.202V.29ZM11.322.281H.12v22.376h11.202V.281Zm241.143 5.904h1.082c.026.47.141.851.341 1.144.383.549 1.055.822 2.021.822.432 0 .825-.06 1.181-.18.687-.231 1.03-.65 1.03-1.252 0-.45-.145-.77-.435-.962-.293-.189-.752-.351-1.377-.492l-1.152-.253c-.753-.165-1.285-.347-1.598-.546-.54-.345-.81-.862-.81-1.55 0-.743.264-1.353.792-1.833.528-.477 1.277-.714 2.246-.714.892 0 1.648.21 2.271.628.624.418.936 1.088.936 2.008h-1.083c-.058-.443-.181-.782-.371-1.02-.351-.432-.947-.647-1.789-.647-.679 0-1.168.14-1.465.416-.297.278-.445.601-.445.97 0 .406.174.702.521.89.228.121.743.27 1.545.45l1.192.266c.575.129 1.02.303 1.332.526.54.387.81.948.81 1.683 0 .918-.342 1.575-1.028 1.969-.684.394-1.481.592-2.388.592-1.057 0-1.884-.263-2.482-.79-.599-.521-.892-1.228-.88-2.124h.003Zm9.181 1.375c-.289-.43-.433-.964-.433-1.607 0-.642.145-1.24.433-1.712.289-.474.753-.71 1.389-.71.718 0 1.223.278 1.516.832.185.354.278.812.278 1.375a3.71 3.71 0 0 1-.386 1.699c-.257.51-.73.763-1.42.763-.629 0-1.089-.214-1.378-.642l.001.003Zm-.712-4.013c-.528.6-.793 1.41-.793 2.424 0 .947.251 1.7.752 2.262.502.56 1.179.844 2.033.844 1.022 0 1.777-.318 2.263-.953s.73-1.44.73-2.414c0-.973-.276-1.767-.829-2.286-.552-.519-1.227-.78-2.026-.78-.891 0-1.602.3-2.13.902Zm8.61-.902c.698 0 1.267.167 1.705.496.438.332.701.9.79 1.708h-1.013a1.79 1.79 0 0 0-.423-.926c-.22-.246-.573-.37-1.059-.37-.664 0-1.139.316-1.424.948-.185.41-.277.915-.277 1.516 0 .6.131 1.112.394 1.527.263.414.674.62 1.239.62.432 0 .774-.128 1.027-.386.252-.258.428-.61.524-1.058h1.013c-.115.802-.405 1.388-.868 1.757-.463.37-1.056.554-1.778.554-.81 0-1.456-.288-1.939-.864-.482-.576-.723-1.298-.723-2.162 0-1.06.265-1.883.793-2.473.528-.59 1.202-.886 2.02-.886l-.001-.001Zm3.537 6.211V2.85h1.059v6.006h-1.059Zm0-7.129V.577h1.059v1.15h-1.059Zm3.91 4.678c.19-.107.473-.183.851-.232l.63-.08a4.37 4.37 0 0 0 .591-.111 1.78 1.78 0 0 0 .492-.2V6.6c0 .623-.289 1.073-.868 1.346a2.402 2.402 0 0 1-1.065.25c-.301 0-.561-.085-.781-.254a.829.829 0 0 1-.33-.695c0-.385.159-.667.48-.843Zm-1.03-.434c-.359.307-.539.741-.539 1.302 0 .51.182.935.547 1.275.365.34.835.51 1.41.51.479 0 .916-.1 1.313-.298.398-.2.702-.434.915-.706.035.24.095.428.18.559.162.246.423.371.782.371.146 0 .262-.004.347-.017.085-.012.207-.038.37-.084v-.748a1.99 1.99 0 0 1-.34.033c-.143 0-.237-.031-.281-.095a.435.435 0 0 1-.068-.254V4.342c0-.57-.225-.991-.677-1.263-.455-.268-1.047-.405-1.776-.405-.63 0-1.182.145-1.658.436-.477.292-.724.807-.745 1.554h.973c.038-.312.121-.548.249-.706.228-.285.614-.427 1.158-.427.47 0 .832.078 1.085.233.252.156.379.408.379.753 0 .17-.022.298-.069.388-.082.167-.242.265-.481.293l-1.661.203c-.582.071-1.053.26-1.412.57h-.001Zm6.37 2.885V.576h1.042v8.28h-1.042Zm5.705-2.671h1.083c.026.47.14.851.342 1.144.381.549 1.054.822 2.019.822.433 0 .826-.06 1.182-.18.686-.231 1.03-.65 1.03-1.252 0-.45-.144-.77-.435-.962-.294-.189-.753-.351-1.377-.492l-1.152-.253c-.753-.165-1.285-.347-1.598-.546-.541-.345-.809-.862-.809-1.55 0-.743.264-1.353.793-1.833.528-.477 1.276-.714 2.245-.714.893 0 1.65.21 2.273.628.623.418.934 1.088.934 2.008h-1.082c-.059-.443-.181-.782-.371-1.02-.352-.432-.948-.647-1.789-.647-.679 0-1.167.14-1.464.416-.298.278-.447.601-.447.97 0 .406.175.702.521.89.228.121.743.27 1.546.45l1.192.266c.574.129 1.02.303 1.333.526.54.387.809.948.809 1.683 0 .918-.343 1.575-1.026 1.969-.686.394-1.482.592-2.389.592-1.058 0-1.885-.263-2.483-.79-.599-.521-.892-1.228-.88-2.124Zm10.489-3.54c.699 0 1.267.167 1.705.496.438.332.702.9.79 1.708h-1.014a1.788 1.788 0 0 0-.421-.926c-.221-.246-.574-.37-1.06-.37-.664 0-1.138.316-1.424.948-.185.41-.278.915-.278 1.516 0 .6.132 1.112.395 1.527.261.414.676.62 1.237.62.433 0 .776-.128 1.028-.386s.426-.61.523-1.058h1.014c-.116.802-.406 1.388-.868 1.757-.465.37-1.057.554-1.777.554-.81 0-1.456-.288-1.939-.864-.483-.576-.725-1.298-.725-2.162 0-1.06.265-1.883.794-2.473.528-.59 1.202-.886 2.02-.886v-.001Zm4.594-.918V.577h-1.058v1.15h1.058Zm0 7.13V2.85h-1.058v6.006h1.058Zm2.887-4.783a1.607 1.607 0 0 1 1.205-.505c.666 0 1.143.244 1.43.735.155.263.253.613.295 1.053h-3.444c.018-.518.191-.945.515-1.282h-.001Zm-.852-.48c-.54.603-.809 1.392-.809 2.36 0 .967.268 1.75.805 2.297.536.546 1.189.82 1.962.82.316 0 .6-.032.852-.089.467-.106.857-.31 1.174-.61.188-.172.36-.394.512-.669.153-.27.243-.519.269-.74h-1.024a1.734 1.734 0 0 1-.394.705c-.324.35-.757.524-1.301.524-.583 0-1.013-.185-1.292-.554-.277-.37-.425-.862-.445-1.474h4.544c0-.61-.03-1.053-.091-1.331a2.64 2.64 0 0 0-.418-1.065c-.216-.318-.531-.579-.944-.78a2.878 2.878 0 0 0-1.279-.302c-.873 0-1.579.302-2.119.908h-.002Zm6.129 5.261V2.819h.99v.857c.294-.354.604-.608.932-.761a2.553 2.553 0 0 1 1.094-.231c.88 0 1.476.298 1.784.897.169.325.253.793.253 1.403v3.871h-1.058V5.05c0-.367-.057-.663-.168-.89-.185-.374-.52-.564-1.008-.564a2.1 2.1 0 0 0-.608.074 1.565 1.565 0 0 0-.753.497 1.483 1.483 0 0 0-.339.617c-.051.212-.078.517-.078.91v3.162h-1.042l.001-.001Zm8.981-6.21c.698 0 1.266.167 1.704.496.439.332.702.9.79 1.708h-1.012a1.806 1.806 0 0 0-.423-.926c-.22-.246-.574-.37-1.059-.37-.665 0-1.139.316-1.425.948-.185.41-.277.915-.277 1.516 0 .6.132 1.112.394 1.527.261.415.676.62 1.237.62.433 0 .776-.128 1.028-.386s.427-.61.525-1.058h1.012c-.115.802-.405 1.388-.868 1.757-.464.37-1.056.554-1.777.554-.81 0-1.456-.288-1.939-.864-.482-.576-.724-1.298-.724-2.162 0-1.06.264-1.883.793-2.473.529-.59 1.202-.886 2.021-.886v-.001Zm4.851 1.429a1.603 1.603 0 0 1 1.203-.505c.667 0 1.145.244 1.431.735.155.263.252.613.296 1.053H324.6c.019-.518.191-.945.516-1.282h-.001Zm-.852-.48c-.54.603-.81 1.392-.81 2.36 0 .967.269 1.75.804 2.297a2.65 2.65 0 0 0 1.962.82c.318 0 .602-.032.853-.089.467-.106.858-.31 1.174-.61.189-.172.36-.394.512-.669.154-.27.243-.519.27-.74h-1.024a1.756 1.756 0 0 1-.393.705c-.325.35-.759.524-1.304.524-.582 0-1.013-.185-1.29-.554-.278-.37-.427-.862-.446-1.474h4.544c0-.61-.031-1.053-.093-1.331a2.64 2.64 0 0 0-.417-1.065c-.215-.318-.531-.579-.944-.78a2.876 2.876 0 0 0-1.28-.302c-.871 0-1.577.302-2.118.908Zm5.746 3.367h1.002c.031.339.116.598.26.78.262.325.718.49 1.365.49.387 0 .726-.082 1.02-.245a.813.813 0 0 0 .44-.76.65.65 0 0 0-.352-.592c-.151-.082-.448-.178-.892-.288l-.828-.202c-.528-.127-.92-.269-1.17-.428-.446-.273-.671-.654-.671-1.137 0-.573.21-1.033.634-1.387.423-.355.992-.53 1.705-.53.934 0 1.608.268 2.02.8.259.339.385.703.376 1.092h-.984a1.154 1.154 0 0 0-.249-.625c-.239-.265-.655-.398-1.245-.398-.393 0-.69.073-.894.218a.684.684 0 0 0-.304.581c0 .263.133.475.4.632.154.094.382.176.683.247l.689.162c.748.178 1.25.35 1.504.515.405.258.609.666.609 1.222 0 .557-.21 1.002-.629 1.392-.419.392-1.056.588-1.912.588-.924 0-1.575-.204-1.96-.612-.383-.408-.588-.913-.616-1.514l-.001-.001Zm10.883-.556c.188-.107.472-.183.851-.232l.632-.08c.192-.023.388-.06.589-.111.202-.054.365-.118.492-.2V6.6c0 .623-.289 1.073-.868 1.346a2.405 2.405 0 0 1-1.065.25 1.24 1.24 0 0 1-.781-.254.828.828 0 0 1-.329-.695c0-.385.16-.667.48-.843h-.001Zm-1.031-.434c-.359.307-.538.741-.538 1.302 0 .51.181.935.546 1.275.365.34.834.51 1.408.51.479 0 .917-.1 1.315-.298.397-.2.702-.434.915-.706.034.24.093.428.179.559.162.246.422.371.781.371.147 0 .263-.004.347-.017.085-.012.208-.038.371-.084v-.748a2.008 2.008 0 0 1-.341.033c-.144 0-.238-.031-.281-.095a.443.443 0 0 1-.066-.254V4.342c0-.57-.227-.991-.678-1.263-.455-.268-1.047-.405-1.777-.405-.63 0-1.181.145-1.659.436-.476.292-.724.807-.743 1.554h.972c.039-.312.123-.548.25-.706.228-.285.613-.427 1.157-.427.471 0 .833.078 1.087.233.252.156.379.408.379.753 0 .17-.023.298-.07.388-.081.167-.241.265-.481.293l-1.66.203c-.584.071-1.054.26-1.413.57Zm6.341 2.884V2.819h.991v.857c.292-.354.603-.608.931-.761a2.557 2.557 0 0 1 1.094-.231c.88 0 1.474.298 1.783.897.17.325.254.793.254 1.403v3.871h-1.059V5.05c0-.367-.057-.663-.169-.89-.185-.374-.52-.564-1.006-.564-.247 0-.45.025-.609.074a1.558 1.558 0 0 0-.752.497 1.472 1.472 0 0 0-.339.617c-.053.212-.078.517-.078.91v3.162H346.2l.002-.001Zm7.74-4.672c.325-.39.751-.586 1.277-.586.47 0 .866.182 1.186.55.321.364.482.93.482 1.694 0 .765-.156 1.334-.467 1.737-.311.406-.709.608-1.19.608-.622 0-1.073-.219-1.357-.655-.281-.436-.421-.977-.421-1.623 0-.76.163-1.334.49-1.725Zm-.898-.503c-.461.644-.69 1.405-.69 2.284 0 .94.252 1.692.757 2.258.505.566 1.105.849 1.795.849.427 0 .808-.082 1.14-.247.333-.167.62-.434.864-.806v.839h.937V.549h-1.001v3.048c-.235-.28-.445-.48-.632-.592-.32-.195-.717-.292-1.192-.292-.856 0-1.515.32-1.977.967h-.001Zm9.8 5.176V.576h1.163v3.422h4.423V.576h1.164v8.28h-1.164V4.985h-4.423v3.871h-1.163Zm8.367-6.036h1.065v4.008c0 .308.051.559.152.755.184.361.53.541 1.036.541.725 0 1.218-.316 1.481-.949.143-.336.215-.801.215-1.392V2.82h1.042v6.036h-.984l.01-.89a2.012 2.012 0 0 1-.503.58c-.397.315-.88.473-1.447.473-.883 0-1.486-.288-1.807-.862-.173-.307-.26-.719-.26-1.233V2.82Zm6.614 6.035V2.819h1.03v.857c.248-.298.471-.514.673-.648a2.055 2.055 0 0 1 1.168-.344c.493 0 .892.118 1.192.356.169.133.324.334.463.596a2.22 2.22 0 0 1 .817-.719 2.325 2.325 0 0 1 1.052-.233c.834 0 1.401.293 1.703.879.161.315.242.738.242 1.274v4.018h-1.081V4.664c0-.404-.105-.68-.311-.83a1.252 1.252 0 0 0-.756-.225 1.52 1.52 0 0 0-1.056.401c-.295.268-.444.713-.444 1.336v3.511h-1.059V4.915c0-.408-.05-.708-.151-.895-.158-.283-.453-.424-.885-.424-.394 0-.753.15-1.073.446-.323.295-.484.834-.484 1.612v3.201h-1.042.002Zm11.152-2.45c.188-.107.472-.183.851-.232l.631-.08c.193-.023.389-.06.591-.111.202-.054.365-.118.492-.2V6.6c0 .623-.288 1.073-.868 1.346a2.404 2.404 0 0 1-1.064.25c-.302 0-.564-.085-.782-.254a.828.828 0 0 1-.329-.695c0-.385.16-.667.48-.843h-.002Zm-1.031-.434c-.358.307-.538.741-.538 1.302 0 .51.181.935.546 1.275.365.34.834.51 1.409.51.479 0 .916-.1 1.314-.298.397-.2.702-.434.915-.706.034.24.093.428.18.559.161.246.422.371.781.371.147 0 .263-.004.348-.017a2.91 2.91 0 0 0 .371-.084v-.748a1.964 1.964 0 0 1-.341.033c-.144 0-.237-.031-.281-.095a.443.443 0 0 1-.066-.254V4.342c0-.57-.226-.991-.677-1.263-.456-.268-1.048-.405-1.778-.405-.629 0-1.181.145-1.658.436-.476.292-.725.807-.744 1.554h.971c.039-.312.123-.548.25-.706.228-.285.613-.427 1.159-.427.469 0 .831.078 1.085.233.253.156.379.408.379.753a.87.87 0 0 1-.069.388c-.082.167-.242.265-.481.293l-1.661.203c-.584.071-1.054.26-1.413.57h-.001Zm6.341 2.884V2.819h.99v.857c.293-.354.604-.608.933-.761a2.55 2.55 0 0 1 1.094-.231c.88 0 1.475.298 1.784.897.169.325.253.793.253 1.403v3.871h-1.059V5.05c0-.367-.057-.663-.168-.89-.185-.374-.52-.564-1.007-.564-.247 0-.45.025-.609.074a1.565 1.565 0 0 0-.753.497 1.48 1.48 0 0 0-.338.617c-.053.212-.078.517-.078.91v3.162h-1.043l.001-.001Zm6.591.001V2.85h1.059v6.006h-1.059Zm0-7.129V.577h1.059v1.15h-1.059Zm2.84 1.093V1.135h1.053V2.82h.989v.829h-.989v3.939c0 .211.073.352.22.423.081.042.216.062.406.062.05 0 .103 0 .161-.002.058-.003.126-.007.202-.016v.802a2.334 2.334 0 0 1-.373.074 4.24 4.24 0 0 1-.42.022c-.486 0-.817-.123-.991-.362-.172-.243-.259-.559-.259-.945V3.65h-.839v-.83h.84Zm3.085 6.036V2.85h1.059v6.006h-1.059Zm0-7.129V.577h1.059v1.15h-1.059Zm3.944 2.347a1.607 1.607 0 0 1 1.205-.505c.666 0 1.144.244 1.429.735.154.263.251.613.296 1.053h-3.445c.018-.518.19-.945.515-1.282Zm-.851-.48c-.54.603-.81 1.392-.81 2.36 0 .967.269 1.75.804 2.297.538.546 1.191.82 1.963.82.317 0 .6-.032.851-.089.469-.106.859-.31 1.174-.61.19-.172.362-.394.513-.669.154-.27.243-.519.27-.74h-1.024a1.758 1.758 0 0 1-.394.705c-.324.35-.758.524-1.303.524-.583 0-1.012-.185-1.29-.554-.277-.37-.427-.862-.445-1.474h4.544c0-.61-.031-1.053-.093-1.331a2.64 2.64 0 0 0-.417-1.065c-.215-.318-.531-.579-.943-.78a2.883 2.883 0 0 0-1.281-.302c-.871 0-1.577.302-2.117.908h-.002Zm5.746 3.367h1.001c.032.339.118.598.261.78.262.325.718.49 1.365.49a2.07 2.07 0 0 0 1.02-.245.813.813 0 0 0 .44-.76.648.648 0 0 0-.352-.592c-.151-.082-.448-.178-.892-.288l-.828-.202c-.529-.127-.92-.269-1.169-.428-.447-.273-.672-.654-.672-1.137 0-.573.211-1.033.634-1.387.423-.355.992-.53 1.706-.53.933 0 1.606.268 2.019.8.258.339.384.703.376 1.092h-.984a1.154 1.154 0 0 0-.249-.625c-.239-.265-.654-.398-1.245-.398-.394 0-.69.073-.894.218a.684.684 0 0 0-.304.581c0 .263.133.475.4.632.153.094.382.176.683.247l.689.162c.748.178 1.25.35 1.504.515.405.258.609.666.609 1.222 0 .557-.21 1.002-.629 1.392-.419.392-1.057.588-1.913.588-.923 0-1.575-.204-1.959-.612-.384-.408-.589-.913-.617-1.514v-.001ZM254.086 15.22h2.813c.394 0 .708.059.944.17.439.213.66.617.66 1.206 0 .548-.157.928-.472 1.137-.314.212-.742.316-1.282.316h-2.663v-2.83.001Zm0 7.316v-3.551h2.622c.471 0 .816.051 1.036.152.385.184.592.548.62 1.09l.069 1.38c.016.322.035.54.059.654.023.111.054.205.092.276h1.412v-.187c-.177-.074-.3-.243-.371-.507a3.317 3.317 0 0 1-.08-.704l-.041-1.111c-.019-.48-.113-.83-.281-1.043-.168-.214-.418-.387-.75-.52.378-.19.672-.444.882-.759.21-.315.316-.721.316-1.218 0-.95-.399-1.603-1.198-1.956-.42-.183-.955-.276-1.603-.276h-3.936v8.28h1.152Zm8.442-4.782a1.604 1.604 0 0 1 1.204-.505c.668 0 1.144.244 1.43.735.155.263.254.612.296 1.053h-3.445c.019-.519.191-.945.515-1.282v-.001Zm-.851-.48c-.54.602-.81 1.392-.81 2.36 0 .967.267 1.749.804 2.297a2.65 2.65 0 0 0 1.963.82c.316 0 .6-.032.851-.09a2.46 2.46 0 0 0 1.175-.61 2.54 2.54 0 0 0 .513-.668 2.06 2.06 0 0 0 .269-.741h-1.025a1.746 1.746 0 0 1-.394.706c-.324.35-.759.524-1.303.524-.583 0-1.013-.185-1.29-.555-.278-.369-.426-.86-.446-1.473h4.544c0-.61-.031-1.053-.092-1.332a2.653 2.653 0 0 0-.417-1.064c-.216-.318-.53-.579-.943-.78a2.876 2.876 0 0 0-1.28-.303c-.872 0-1.579.303-2.118.908h-.001Zm5.746 3.366h1.001c.031.34.118.6.261.78.263.325.718.49 1.366.49.385 0 .725-.082 1.019-.244a.814.814 0 0 0 .441-.76.649.649 0 0 0-.353-.593c-.15-.081-.448-.177-.891-.287l-.828-.202c-.529-.128-.919-.27-1.17-.428-.448-.274-.672-.655-.672-1.137 0-.573.211-1.034.634-1.388.422-.354.99-.53 1.705-.53.934 0 1.607.268 2.02.8.258.34.383.704.376 1.093h-.985a1.169 1.169 0 0 0-.248-.625c-.24-.266-.654-.399-1.245-.399-.394 0-.692.074-.894.219a.684.684 0 0 0-.304.58c0 .264.133.475.4.633.154.093.381.175.683.247l.688.162c.749.178 1.251.35 1.505.514.406.259.608.667.608 1.223s-.209 1.002-.628 1.392c-.419.392-1.057.588-1.914.588-.922 0-1.575-.205-1.959-.613-.384-.407-.59-.912-.616-1.513v-.001Zm7.623-2.886a1.604 1.604 0 0 1 1.204-.505c.668 0 1.145.244 1.43.735.155.263.252.612.296 1.053h-3.445c.019-.519.191-.945.515-1.282v-.001Zm-.851-.48c-.54.602-.81 1.392-.81 2.36 0 .967.267 1.749.805 2.297.537.546 1.19.82 1.962.82.317 0 .6-.032.851-.09.467-.106.859-.31 1.176-.61a2.56 2.56 0 0 0 .512-.668 2.06 2.06 0 0 0 .269-.741h-1.024a1.758 1.758 0 0 1-.394.706c-.324.35-.757.524-1.302.524-.584 0-1.014-.185-1.291-.555-.277-.369-.426-.86-.445-1.473h4.544c0-.61-.032-1.053-.093-1.332a2.667 2.667 0 0 0-.416-1.064c-.216-.318-.531-.579-.944-.78a2.875 2.875 0 0 0-1.279-.303c-.872 0-1.578.303-2.118.908h-.003Zm7.407 2.81c.189-.106.473-.182.851-.231l.632-.08c.193-.023.39-.06.589-.112.201-.053.367-.118.493-.198v.817c0 .623-.291 1.073-.87 1.346a2.398 2.398 0 0 1-1.064.249c-.301 0-.562-.084-.782-.254a.83.83 0 0 1-.33-.694c0-.386.16-.667.48-.844l.001.001Zm-1.03-.433c-.359.307-.539.74-.539 1.302 0 .51.183.935.548 1.275.365.339.834.51 1.409.51.479 0 .916-.1 1.313-.299.398-.2.704-.433.915-.705.036.24.095.427.18.558.162.247.423.372.782.372.146 0 .262-.005.348-.018.084-.011.208-.037.371-.084v-.748a2.016 2.016 0 0 1-.342.034c-.143 0-.235-.031-.28-.096a.443.443 0 0 1-.066-.253V18.02c0-.57-.227-.99-.678-1.262-.455-.269-1.047-.405-1.777-.405-.629 0-1.183.144-1.658.436-.477.292-.725.807-.744 1.554h.972c.039-.312.121-.548.249-.706.227-.285.613-.428 1.157-.428.471 0 .832.079 1.085.234.254.155.38.408.38.753 0 .17-.023.298-.07.388-.08.167-.241.265-.48.293l-1.662.202c-.582.072-1.054.261-1.412.57h-.001Zm6.369 2.884V16.5h.99v1.042c.081-.202.279-.45.596-.74.317-.29.682-.437 1.095-.437.019 0 .053.003.099.007.046.003.126.012.237.023v1.07a1.95 1.95 0 0 0-.342-.03c-.524 0-.928.166-1.21.493-.282.33-.423.708-.423 1.137v3.472h-1.042v-.002Zm6.307-6.211c.7 0 1.266.167 1.706.497.437.332.701.899.788 1.708h-1.013a1.788 1.788 0 0 0-.421-.926c-.221-.247-.573-.37-1.06-.37-.663 0-1.138.316-1.423.947-.185.41-.277.916-.277 1.516 0 .601.131 1.113.392 1.528.263.414.676.62 1.239.62.432 0 .775-.128 1.028-.386.252-.259.426-.61.522-1.058h1.013c-.114.802-.404 1.387-.868 1.757-.463.369-1.055.554-1.776.554-.811 0-1.457-.288-1.939-.864-.483-.576-.723-1.299-.723-2.162 0-1.06.263-1.883.792-2.474.529-.59 1.202-.886 2.02-.886Zm3.538 6.211V14.23h1.042v3.088c.247-.305.468-.52.665-.643.336-.214.755-.32 1.257-.32.899 0 1.509.307 1.829.92.174.334.261.796.261 1.391v3.872h-1.071v-3.805c0-.443-.059-.768-.174-.975-.189-.33-.544-.494-1.065-.494a1.81 1.81 0 0 0-1.175.432c-.352.29-.527.837-.527 1.641v3.202h-1.042v-.003Zm13.605-8.505c1.077 0 1.913.277 2.508.83.593.551.924 1.18.99 1.883h-1.123c-.127-.535-.381-.958-.761-1.27-.381-.312-.914-.467-1.599-.467-.838 0-1.514.287-2.03.859-.517.572-.773 1.451-.773 2.633 0 .971.231 1.757.697 2.36.466.603 1.159.903 2.081.903.85 0 1.495-.317 1.938-.952.236-.335.411-.773.528-1.319h1.122c-.101.871-.432 1.604-.996 2.193-.676.71-1.586 1.064-2.732 1.064-.988 0-1.817-.291-2.49-.873-.882-.77-1.324-1.96-1.324-3.569 0-1.22.332-2.222.995-3.004.718-.848 1.709-1.274 2.971-1.274l-.002.004Zm5.919 7.21c-.291-.43-.435-.964-.435-1.607s.144-1.24.435-1.712c.289-.475.753-.71 1.388-.71.718 0 1.223.277 1.517.831.185.354.278.813.278 1.376a3.72 3.72 0 0 1-.385 1.698c-.257.51-.732.764-1.422.764-.629 0-1.088-.214-1.377-.642l.001.002Zm-.712-4.013c-.529.6-.792 1.41-.792 2.424 0 .946.249 1.7.752 2.261.501.561 1.178.844 2.032.844 1.023 0 1.777-.318 2.264-.952.486-.635.73-1.44.73-2.414 0-.974-.277-1.767-.829-2.286-.552-.52-1.228-.78-2.026-.78-.892 0-1.602.3-2.13.901l-.001.002Zm6.196-.727h1.066v4.008c0 .307.05.559.151.755.185.361.531.541 1.036.541.725 0 1.219-.317 1.482-.949.141-.337.214-.802.214-1.392V16.5h1.042v6.036h-.984l.012-.89a2.04 2.04 0 0 1-.503.58c-.398.314-.88.472-1.448.472-.884 0-1.486-.287-1.806-.861-.174-.308-.261-.719-.261-1.233V16.5h-.001Zm6.614 6.037V16.5h.99v.857c.293-.355.604-.608.932-.761a2.548 2.548 0 0 1 1.093-.232c.88 0 1.475.298 1.783.898.171.325.255.792.255 1.402v3.872h-1.059v-3.805c0-.367-.058-.664-.169-.89-.185-.375-.52-.564-1.006-.564-.248 0-.451.025-.609.074a1.555 1.555 0 0 0-.753.497 1.468 1.468 0 0 0-.338.617c-.053.211-.078.516-.078.91v3.162h-1.044l.003-.001Zm8.981-6.213c.7 0 1.266.167 1.706.497.437.332.701.899.788 1.708h-1.013a1.774 1.774 0 0 0-.422-.926c-.22-.247-.573-.37-1.06-.37-.663 0-1.139.316-1.423.947-.185.41-.279.916-.279 1.516 0 .601.132 1.113.394 1.528.263.414.677.62 1.239.62.432 0 .776-.128 1.027-.386.253-.259.427-.61.523-1.058h1.013c-.114.802-.404 1.387-.866 1.757-.465.369-1.057.554-1.778.554-.811 0-1.457-.288-1.939-.864-.482-.576-.724-1.299-.724-2.162 0-1.06.265-1.883.793-2.474.529-.59 1.202-.886 2.02-.886h.001Zm3.537 6.212v-6.007h1.059v6.007h-1.059Zm0-7.129v-1.151h1.059v1.151h-1.059Zm2.66 7.129v-8.28h1.043v8.28h-1.043Zm6.978-1.296c-.29-.43-.434-.964-.434-1.607s.144-1.24.434-1.712c.289-.475.752-.71 1.389-.71.717 0 1.223.277 1.516.831.185.354.278.813.278 1.376a3.71 3.71 0 0 1-.386 1.698c-.256.51-.73.764-1.42.764-.629 0-1.089-.214-1.379-.642l.002.002Zm-.712-4.013c-.529.6-.794 1.41-.794 2.424 0 .946.252 1.7.754 2.261.502.561 1.179.844 2.033.844 1.021 0 1.776-.318 2.264-.952.485-.635.728-1.44.728-2.414 0-.974-.274-1.767-.828-2.286-.552-.52-1.227-.78-2.025-.78-.892 0-1.603.3-2.131.901l-.001.002Zm6.48-1.647c.014-.42.09-.728.226-.924.243-.345.712-.52 1.407-.52.063 0 .132.003.201.008l.238.015v.923l-.234-.013c-.048-.002-.094-.002-.136-.002-.315 0-.505.08-.566.239-.062.16-.093.568-.093 1.222h1.03v.8h-1.042v5.207h-1.03v-5.207h-.862v-.8h.862v-.948h-.001Zm10.048-1.55c1.077 0 1.912.277 2.507.83.594.551.925 1.18.991 1.883h-1.123c-.128-.535-.382-.958-.761-1.27-.379-.312-.914-.467-1.6-.467-.837 0-1.514.287-2.029.859-.515.572-.773 1.451-.773 2.633 0 .971.232 1.757.697 2.36.465.603 1.16.903 2.081.903.848 0 1.495-.317 1.938-.952.236-.335.412-.773.527-1.319h1.123c-.101.871-.433 1.604-.996 2.193-.675.71-1.586 1.064-2.733 1.064-.988 0-1.816-.291-2.487-.873-.884-.77-1.327-1.96-1.327-3.569 0-1.22.331-2.222.996-3.004.718-.848 1.708-1.274 2.969-1.274v.004Zm6.117 6.054c.189-.106.472-.182.852-.231l.631-.08c.193-.023.39-.06.589-.112.201-.053.365-.118.493-.198v.817c0 .623-.291 1.073-.87 1.346a2.403 2.403 0 0 1-1.066.249c-.299 0-.56-.084-.781-.254a.83.83 0 0 1-.33-.694c0-.386.159-.667.481-.844l.001.001Zm-1.03-.433c-.359.307-.539.74-.539 1.302 0 .51.182.935.548 1.275.363.339.833.51 1.408.51.478 0 .917-.1 1.313-.299.398-.2.704-.433.915-.705.036.24.095.427.18.558.162.247.423.372.782.372.146 0 .261-.005.347-.018.085-.011.209-.037.371-.084v-.748a1.972 1.972 0 0 1-.341.034c-.142 0-.236-.031-.28-.096a.443.443 0 0 1-.066-.253V18.02c0-.57-.226-.99-.678-1.262-.455-.269-1.047-.405-1.777-.405-.629 0-1.183.144-1.658.436-.477.292-.725.807-.743 1.554h.972c.039-.312.121-.548.25-.706.227-.285.613-.428 1.157-.428.471 0 .832.079 1.086.234.252.155.379.408.379.753 0 .17-.024.298-.07.388-.081.167-.241.265-.48.293l-1.662.202c-.583.072-1.052.261-1.411.57h-.003Zm6.342 2.886V16.5h.99v.857c.293-.355.604-.608.93-.761a2.555 2.555 0 0 1 1.094-.232c.88 0 1.474.298 1.783.898.17.325.254.792.254 1.402v3.872h-1.058v-3.805c0-.367-.057-.664-.169-.89-.184-.375-.521-.564-1.007-.564-.247 0-.449.025-.607.074a1.55 1.55 0 0 0-.753.497 1.471 1.471 0 0 0-.339.617c-.052.211-.079.516-.079.91v3.162h-1.042l.003-.001Zm7.868-2.453c.189-.106.473-.182.851-.231l.631-.08c.192-.023.39-.06.59-.112a1.79 1.79 0 0 0 .493-.198v.817c0 .623-.289 1.073-.868 1.346-.344.167-.7.249-1.066.249-.301 0-.562-.084-.782-.254a.83.83 0 0 1-.328-.694c0-.386.159-.667.48-.844l-.001.001Zm-1.031-.433c-.358.307-.539.74-.539 1.302 0 .51.183.935.547 1.275.366.339.834.51 1.41.51.478 0 .915-.1 1.312-.299.398-.2.703-.433.915-.705.036.24.095.427.18.558.161.247.422.372.781.372.147 0 .263-.005.347-.018.085-.011.207-.037.371-.084v-.748a1.972 1.972 0 0 1-.341.034c-.143 0-.237-.031-.281-.096a.45.45 0 0 1-.066-.253V18.02c0-.57-.227-.99-.677-1.262-.455-.269-1.047-.405-1.777-.405-.629 0-1.183.144-1.659.436-.477.292-.724.807-.745 1.554h.974c.038-.312.122-.548.25-.706.228-.285.614-.428 1.158-.428.47 0 .832.079 1.084.234.254.155.38.408.38.753a.87.87 0 0 1-.069.388c-.083.167-.242.265-.481.293l-1.662.202c-.583.072-1.053.261-1.412.57Zm7.492-1.789c.326-.389.751-.585 1.276-.585.471 0 .867.182 1.187.55.321.364.481.93.481 1.694 0 .764-.155 1.334-.467 1.737-.31.405-.708.608-1.189.608-.621 0-1.072-.219-1.354-.655-.282-.436-.423-.977-.423-1.623 0-.76.162-1.334.49-1.726h-.001Zm-.898-.502c-.461.644-.692 1.405-.692 2.284 0 .94.254 1.692.759 2.258.505.566 1.102.848 1.794.848a2.53 2.53 0 0 0 1.14-.246c.332-.167.62-.434.862-.807v.84h.938v-8.308h-1.001v3.048c-.236-.28-.446-.48-.631-.593-.321-.194-.718-.29-1.192-.29-.856 0-1.516.32-1.977.966Zm7.619 2.724c.188-.106.471-.182.851-.231l.631-.08c.192-.023.389-.06.59-.112a1.79 1.79 0 0 0 .492-.198v.817c0 .623-.289 1.073-.869 1.346a2.405 2.405 0 0 1-1.065.249c-.301 0-.562-.084-.782-.254a.83.83 0 0 1-.329-.694c0-.386.159-.667.481-.844v.001Zm-1.032-.433c-.359.307-.537.74-.537 1.302 0 .51.181.935.546 1.275.365.339.834.51 1.408.51.479 0 .917-.1 1.315-.299.397-.2.702-.433.914-.705.034.24.094.427.179.558.162.247.423.372.782.372.146 0 .263-.005.347-.018.085-.011.207-.037.371-.084v-.748a2.063 2.063 0 0 1-.341.034c-.143 0-.237-.031-.28-.096a.428.428 0 0 1-.066-.253V18.02c0-.57-.227-.99-.678-1.262-.456-.269-1.048-.405-1.777-.405-.63 0-1.183.144-1.659.436-.476.292-.725.807-.743 1.554h.972c.039-.312.123-.548.25-.706.227-.285.613-.428 1.157-.428.471 0 .832.079 1.087.234.252.155.379.408.379.753 0 .17-.024.298-.071.388-.08.167-.24.265-.48.293l-1.66.202c-.584.072-1.054.261-1.413.57h-.002ZM72.479.234c1.077 0 1.912.276 2.507.829.594.551.924 1.18.99 1.883h-1.124c-.127-.535-.38-.958-.76-1.27-.381-.312-.915-.467-1.601-.467-.838 0-1.514.287-2.03.859-.514.573-.771 1.452-.771 2.633 0 .971.233 1.757.698 2.36.464.603 1.158.904 2.08.904.849 0 1.495-.318 1.939-.953.235-.334.41-.773.527-1.318h1.122c-.1.87-.432 1.603-.995 2.192-.676.71-1.586 1.064-2.732 1.064-.988 0-1.818-.291-2.489-.873-.884-.77-1.325-1.96-1.325-3.569 0-1.22.332-2.222.996-3.004C70.23.656 71.218.23 72.48.23l-.001.004Zm5.918 7.209c-.29-.43-.433-.964-.433-1.607s.144-1.24.433-1.712c.29-.475.753-.71 1.39-.71.717 0 1.222.277 1.515.832.185.354.278.812.278 1.375a3.71 3.71 0 0 1-.386 1.698c-.257.51-.73.764-1.42.764-.629 0-1.089-.214-1.378-.642l.001.002Zm-.712-4.013c-.53.6-.793 1.41-.793 2.424 0 .947.25 1.7.752 2.261.502.562 1.18.844 2.033.844 1.021 0 1.777-.318 2.263-.952.486-.635.73-1.44.73-2.414 0-.973-.276-1.767-.829-2.286-.552-.519-1.226-.78-2.025-.78-.892 0-1.601.3-2.13.901v.002Zm6.22 5.308V2.702h.99v.857c.292-.354.603-.608.931-.761a2.556 2.556 0 0 1 1.095-.232c.88 0 1.474.298 1.783.898.17.325.254.793.254 1.403v3.87H87.9V4.934c0-.367-.056-.664-.168-.89-.184-.374-.52-.564-1.007-.564-.247 0-.45.025-.607.074a1.556 1.556 0 0 0-.753.497 1.478 1.478 0 0 0-.339.617c-.051.211-.078.516-.078.91V8.74h-1.042v-.001Zm6.209-1.894h1c.03.339.118.598.261.78.263.324.718.49 1.367.49.385 0 .725-.083 1.019-.245a.813.813 0 0 0 .44-.76.648.648 0 0 0-.354-.592c-.151-.082-.448-.178-.892-.288l-.828-.202c-.528-.128-.919-.269-1.17-.428-.447-.273-.67-.655-.67-1.137 0-.573.21-1.033.633-1.388.423-.354.99-.53 1.705-.53.934 0 1.608.269 2.02.8.259.34.385.704.376 1.093h-.984a1.16 1.16 0 0 0-.25-.625c-.239-.265-.654-.399-1.245-.399-.394 0-.691.074-.894.219a.684.684 0 0 0-.304.58c0 .264.133.475.4.633.155.094.382.175.683.247l.689.162c.748.178 1.25.35 1.504.515.406.258.609.666.609 1.222 0 .556-.21 1.002-.628 1.392-.419.392-1.056.588-1.913.588-.923 0-1.576-.204-1.96-.612-.384-.408-.59-.913-.616-1.514l.002-.001Zm7.623-2.887a1.602 1.602 0 0 1 1.204-.505c.667 0 1.144.244 1.43.735.155.263.252.613.295 1.053h-3.444c.019-.519.19-.945.516-1.282l-.001-.001Zm-.851-.48c-.54.603-.81 1.392-.81 2.36 0 .967.267 1.75.803 2.297.537.546 1.19.82 1.962.82.317 0 .6-.032.851-.09a2.46 2.46 0 0 0 1.176-.61 2.56 2.56 0 0 0 .512-.668c.153-.271.243-.519.269-.74h-1.024a1.734 1.734 0 0 1-.394.705c-.324.35-.758.524-1.302.524-.582 0-1.013-.185-1.29-.554-.278-.37-.427-.862-.446-1.474h4.544c0-.61-.031-1.053-.093-1.332a2.638 2.638 0 0 0-.416-1.064c-.216-.318-.531-.579-.944-.78a2.873 2.873 0 0 0-1.278-.303c-.873 0-1.579.303-2.12.909Zm6.127 5.262V2.732h1.059V8.74h-1.059Zm0-7.129V.46h1.059v1.15h-1.059Zm2.66 7.129V.459h1.042v8.28h-1.042Zm7.045-4.673c.326-.39.752-.586 1.276-.586.47 0 .866.182 1.186.55.322.364.482.93.482 1.694 0 .764-.156 1.334-.467 1.737-.31.405-.708.608-1.189.608-.622 0-1.073-.219-1.354-.655-.282-.436-.422-.977-.422-1.623 0-.76.163-1.334.488-1.726Zm-.897-.503c-.461.644-.691 1.405-.691 2.284 0 .94.252 1.692.757 2.258.506.566 1.105.848 1.795.848a2.53 2.53 0 0 0 1.141-.246c.331-.167.619-.434.862-.807v.84h.937V.432h-1V3.48c-.236-.28-.446-.48-.632-.593-.32-.194-.717-.29-1.193-.29-.856 0-1.515.32-1.976.966Zm7.651.394a1.608 1.608 0 0 1 1.206-.505c.666 0 1.143.244 1.43.735.154.263.252.613.295 1.053h-3.444c.018-.519.19-.945.515-1.282l-.002-.001Zm-.85-.48c-.54.603-.81 1.392-.81 2.36 0 .967.268 1.75.804 2.297.537.546 1.19.82 1.963.82.316 0 .599-.032.85-.09a2.455 2.455 0 0 0 1.176-.61 2.56 2.56 0 0 0 .512-.668c.153-.271.243-.519.269-.74h-1.024a1.746 1.746 0 0 1-.394.705c-.323.35-.757.524-1.301.524-.585 0-1.013-.185-1.291-.554-.278-.37-.426-.862-.446-1.474h4.545c0-.61-.031-1.053-.093-1.332a2.64 2.64 0 0 0-.417-1.064c-.216-.318-.531-.579-.944-.78a2.876 2.876 0 0 0-1.28-.303c-.872 0-1.578.303-2.117.909h-.002Zm9.45 5.262V2.703h.989v1.042c.082-.202.28-.45.597-.74.316-.29.682-.437 1.094-.437.019 0 .052.003.098.007.047.003.126.012.238.023v1.07c-.063-.01-.12-.02-.172-.022a1.926 1.926 0 0 0-.17-.007c-.526 0-.928.165-1.211.492-.282.33-.422.708-.422 1.137V8.74h-1.042l.001-.001Zm5.231-4.782a1.602 1.602 0 0 1 1.204-.505c.666 0 1.143.244 1.43.735.154.263.252.613.295 1.053h-3.444c.019-.519.191-.945.516-1.282l-.001-.001Zm-.853-.48c-.54.603-.809 1.392-.809 2.36 0 .967.268 1.75.804 2.297.537.546 1.19.82 1.962.82.317 0 .6-.032.853-.09a2.456 2.456 0 0 0 1.175-.61c.188-.171.359-.393.512-.668.153-.271.242-.519.269-.74h-1.024a1.732 1.732 0 0 1-.393.705c-.325.35-.758.524-1.304.524-.582 0-1.012-.185-1.291-.554-.276-.37-.426-.862-.445-1.474h4.544c0-.61-.031-1.053-.093-1.332a2.625 2.625 0 0 0-.417-1.064c-.215-.318-.53-.579-.944-.78a2.875 2.875 0 0 0-1.279-.303c-.872 0-1.578.303-2.12.909Zm8.519-.95c.699 0 1.267.167 1.705.497.438.332.701.899.79 1.708h-1.013a1.782 1.782 0 0 0-.423-.926c-.219-.247-.571-.37-1.059-.37-.664 0-1.138.316-1.425.947-.185.41-.276.916-.276 1.516 0 .601.131 1.113.394 1.528.263.414.675.62 1.239.62.433 0 .775-.128 1.028-.386.252-.259.426-.61.523-1.058h1.013c-.115.802-.404 1.387-.869 1.757-.462.37-1.055.554-1.777.554-.81 0-1.456-.288-1.937-.864-.484-.576-.724-1.299-.724-2.162 0-1.06.264-1.883.792-2.474.53-.59 1.202-.885 2.021-.885l-.002-.002Zm3.537 6.211V.432h1.043V3.52c.246-.305.47-.52.664-.643.336-.214.756-.32 1.257-.32.899 0 1.509.307 1.83.92.174.334.26.797.26 1.392v3.87h-1.071V4.935c0-.443-.057-.768-.173-.975-.189-.33-.545-.494-1.066-.494a1.81 1.81 0 0 0-1.175.432c-.351.29-.526.837-.526 1.641V8.74h-1.043v-.002Zm7.904-4.781a1.605 1.605 0 0 1 1.204-.505c.668 0 1.144.244 1.43.735.156.263.253.613.297 1.053h-3.445c.019-.519.191-.945.515-1.282l-.001-.001Zm-.851-.48c-.542.603-.81 1.392-.81 2.36 0 .967.268 1.75.805 2.297.537.546 1.19.82 1.962.82.317 0 .6-.032.851-.09a2.456 2.456 0 0 0 1.175-.61c.189-.171.359-.393.513-.668.152-.271.242-.519.269-.74H155.3a1.758 1.758 0 0 1-.394.705c-.325.35-.758.524-1.303.524-.583 0-1.013-.185-1.29-.554-.278-.37-.426-.862-.446-1.474h4.544c0-.61-.031-1.053-.091-1.332a2.67 2.67 0 0 0-.418-1.064c-.216-.318-.531-.579-.943-.78a2.876 2.876 0 0 0-1.28-.303c-.873 0-1.577.303-2.119.909h-.001Zm6.157 5.262V2.703h.99v1.042c.08-.202.279-.45.595-.74.317-.29.681-.437 1.094-.437.018 0 .053.003.099.007.046.003.124.012.236.023v1.07a1.95 1.95 0 0 0-.341-.03c-.524.001-.928.166-1.211.493-.281.33-.422.708-.422 1.137V8.74h-1.042l.002-.001Zm6.307-6.212c.699 0 1.265.167 1.704.497.439.332.702.899.79 1.708h-1.013a1.797 1.797 0 0 0-.422-.926c-.22-.247-.574-.37-1.059-.37-.664 0-1.139.316-1.425.947-.185.41-.277.916-.277 1.516 0 .601.132 1.113.395 1.528.261.414.674.62 1.236.62.434 0 .776-.128 1.028-.386.253-.259.427-.61.524-1.058h1.013c-.116.802-.405 1.387-.868 1.757-.464.37-1.056.554-1.777.554-.811 0-1.458-.288-1.939-.864-.483-.576-.724-1.299-.724-2.162 0-1.06.264-1.883.792-2.474.53-.59 1.203-.885 2.022-.885v-.002Zm3.535 6.211V.432h1.043V3.52c.247-.305.468-.52.665-.643.336-.214.755-.32 1.256-.32.899 0 1.509.307 1.829.92.174.334.261.797.261 1.392v3.87h-1.07V4.935c0-.443-.059-.768-.174-.975-.19-.33-.544-.494-1.066-.494a1.81 1.81 0 0 0-1.175.432c-.351.29-.526.837-.526 1.641V8.74h-1.043v-.002Zm7.906-4.781a1.601 1.601 0 0 1 1.203-.505c.667 0 1.144.244 1.431.735.155.263.252.613.295 1.053h-3.444c.018-.519.191-.945.516-1.282l-.001-.001Zm-.851-.48c-.54.603-.812 1.392-.812 2.36 0 .967.269 1.75.806 2.297.536.546 1.191.82 1.962.82.316 0 .6-.032.852-.09a2.456 2.456 0 0 0 1.175-.61c.189-.171.359-.393.513-.668a2.08 2.08 0 0 0 .269-.74h-1.024a1.76 1.76 0 0 1-.395.705c-.324.35-.759.524-1.303.524-.582 0-1.013-.185-1.289-.554-.279-.37-.428-.862-.447-1.474h4.545c0-.61-.032-1.053-.093-1.332a2.625 2.625 0 0 0-.417-1.064c-.216-.318-.53-.579-.943-.78a2.879 2.879 0 0 0-1.28-.303c-.872 0-1.579.303-2.118.909h-.001Zm5.744 3.367h1c.032.339.118.598.262.78.262.324.717.49 1.365.49.387 0 .725-.083 1.019-.245.295-.165.441-.416.441-.76a.649.649 0 0 0-.353-.592c-.15-.082-.447-.178-.891-.288l-.828-.202c-.53-.128-.92-.269-1.169-.428-.447-.273-.672-.655-.672-1.137 0-.573.212-1.033.634-1.388.423-.354.991-.53 1.705-.53.933 0 1.606.269 2.021.8.258.34.384.704.375 1.093h-.984a1.156 1.156 0 0 0-.25-.625c-.239-.265-.654-.399-1.243-.399-.394 0-.692.074-.895.219a.684.684 0 0 0-.304.58c0 .264.134.475.4.633.154.094.382.175.683.247l.689.162c.748.178 1.25.35 1.503.515.406.258.609.666.609 1.222 0 .556-.209 1.002-.628 1.392-.42.392-1.056.588-1.912.588-.923 0-1.575-.204-1.961-.612-.384-.408-.588-.913-.616-1.514v-.001Zm10.918-2.887a1.601 1.601 0 0 1 1.203-.505c.668 0 1.144.244 1.431.735.155.263.252.613.296 1.053h-3.445c.019-.519.191-.945.517-1.282l-.002-.001Zm-.852-.48c-.54.603-.809 1.392-.809 2.36 0 .967.267 1.75.804 2.297.537.546 1.19.82 1.962.82.317 0 .601-.032.852-.09a2.444 2.444 0 0 0 1.174-.61c.19-.171.36-.393.513-.668.154-.271.242-.519.27-.74h-1.024a1.76 1.76 0 0 1-.395.705c-.324.35-.758.524-1.303.524-.582 0-1.013-.185-1.289-.554-.278-.37-.427-.862-.445-1.474h4.544c0-.61-.032-1.053-.093-1.332a2.612 2.612 0 0 0-.418-1.064c-.214-.318-.53-.579-.943-.78a2.876 2.876 0 0 0-1.28-.303c-.872 0-1.577.303-2.119.909h-.001Zm6.128 5.261V2.702h.99v.857c.293-.354.604-.608.932-.761a2.547 2.547 0 0 1 1.094-.232c.879 0 1.475.298 1.783.898.171.325.255.793.255 1.403v3.87h-1.06V4.934c0-.367-.057-.664-.168-.89-.185-.374-.52-.564-1.008-.564a2.1 2.1 0 0 0-.607.074 1.556 1.556 0 0 0-.753.497 1.469 1.469 0 0 0-.338.617c-.053.211-.078.516-.078.91V8.74h-1.044l.002-.001ZM68.374 20.523h1.001c.031.34.118.599.26.78.264.325.719.49 1.367.49.385 0 .725-.082 1.02-.244a.814.814 0 0 0 .44-.76.648.648 0 0 0-.353-.593c-.15-.082-.448-.177-.89-.287l-.83-.203c-.529-.127-.918-.268-1.169-.427-.447-.274-.672-.655-.672-1.137 0-.573.211-1.034.634-1.388.423-.354.99-.53 1.705-.53.934 0 1.607.268 2.019.8.258.339.384.704.377 1.093h-.984a1.168 1.168 0 0 0-.249-.625c-.24-.266-.654-.399-1.245-.399-.394 0-.691.074-.894.219a.684.684 0 0 0-.304.58c0 .264.133.475.4.633.155.093.381.175.683.247l.689.162c.75.178 1.25.35 1.505.514.406.258.608.666.608 1.223 0 .556-.21 1.002-.628 1.392-.419.391-1.056.588-1.912.588-.922 0-1.577-.205-1.96-.613-.384-.408-.59-.913-.617-1.513l-.001-.002Zm8.7-4.318c.699 0 1.267.167 1.705.497.438.332.701.899.79 1.707h-1.013a1.786 1.786 0 0 0-.423-.925c-.22-.247-.573-.37-1.059-.37-.664 0-1.138.316-1.424.947-.185.41-.277.915-.277 1.516 0 .6.13 1.113.394 1.528.263.413.674.62 1.239.62.432 0 .774-.128 1.027-.387.252-.258.428-.61.524-1.057h1.013c-.115.802-.406 1.387-.868 1.757-.462.369-1.055.553-1.777.553-.81 0-1.456-.287-1.939-.863-.482-.577-.722-1.299-.722-2.163 0-1.06.264-1.883.792-2.473.528-.59 1.202-.886 2.02-.886h-.002Zm3.536 6.214v-6.007h1.06v6.007h-1.06Zm0-7.129v-1.151h1.06v1.151h-1.06Zm3.876 2.473a1.602 1.602 0 0 1 1.204-.502c.668 0 1.145.243 1.43.732.155.263.252.615.296 1.054H83.97c.02-.52.191-.947.515-1.283Zm-.85-.48c-.541.605-.811 1.392-.811 2.36 0 .967.267 1.75.804 2.297a2.65 2.65 0 0 0 1.963.82c.316 0 .6-.03.851-.089a2.46 2.46 0 0 0 1.175-.61c.19-.172.36-.394.513-.668a2.07 2.07 0 0 0 .269-.738h-1.025a1.743 1.743 0 0 1-.394.703c-.324.35-.759.524-1.303.524-.583 0-1.013-.185-1.29-.554-.278-.37-.426-.861-.446-1.474h4.544c0-.608-.03-1.05-.092-1.329a2.64 2.64 0 0 0-.417-1.066c-.216-.318-.53-.578-.943-.78a2.876 2.876 0 0 0-1.28-.302c-.873 0-1.579.303-2.118.908v-.002Zm6.196 5.135v-6.036h.99v.856c.292-.354.603-.607.931-.76a2.555 2.555 0 0 1 1.094-.232c.88 0 1.474.298 1.783.898.169.325.254.792.254 1.402v3.872h-1.059v-3.805c0-.367-.056-.664-.168-.89-.185-.375-.52-.564-1.007-.564-.247 0-.45.024-.608.074a1.557 1.557 0 0 0-.752.496 1.478 1.478 0 0 0-.339.617c-.051.212-.078.517-.078.911v3.162h-1.042l.001-.002Zm8.982-6.213c.697 0 1.266.167 1.704.497.439.332.701.899.79 1.707h-1.013a1.785 1.785 0 0 0-.422-.925c-.22-.247-.574-.37-1.06-.37-.663 0-1.139.316-1.423.947-.185.41-.278.915-.278 1.516 0 .6.131 1.113.394 1.528.262.413.675.62 1.238.62.432 0 .774-.128 1.028-.387.253-.258.427-.61.524-1.057h1.014c-.117.802-.406 1.387-.868 1.757-.464.369-1.056.553-1.777.553-.81 0-1.458-.287-1.94-.863-.482-.577-.723-1.299-.723-2.163 0-1.06.264-1.883.792-2.473.53-.59 1.203-.886 2.02-.886Zm4.851 1.43a1.602 1.602 0 0 1 1.204-.505c.668 0 1.144.244 1.43.735.155.263.252.612.295 1.053h-3.444c.019-.519.191-.946.516-1.282l-.001-.001Zm-.851-.48c-.54.602-.811 1.391-.811 2.36 0 .967.268 1.749.805 2.297.536.546 1.19.82 1.961.82.317 0 .601-.032.852-.09.467-.106.858-.31 1.175-.61.19-.171.36-.393.513-.668a2.06 2.06 0 0 0 .269-.741h-1.025a1.732 1.732 0 0 1-.393.706c-.324.35-.759.523-1.303.523-.582 0-1.013-.184-1.29-.554-.278-.369-.427-.861-.446-1.474h4.544c0-.61-.031-1.053-.092-1.33a2.654 2.654 0 0 0-.417-1.066c-.216-.317-.531-.578-.944-.78a2.87 2.87 0 0 0-1.278-.302c-.873 0-1.579.303-2.119.908h-.001Zm5.744 3.368h1.001c.032.34.118.599.261.78.263.325.718.49 1.366.49.385 0 .725-.082 1.019-.244a.813.813 0 0 0 .44-.76.648.648 0 0 0-.353-.593c-.15-.082-.448-.177-.891-.287l-.828-.203c-.53-.127-.919-.268-1.17-.427-.448-.274-.671-.655-.671-1.137 0-.573.211-1.034.634-1.388.423-.354.991-.53 1.705-.53.934 0 1.607.268 2.02.8.258.339.384.704.376 1.093h-.984a1.17 1.17 0 0 0-.249-.625c-.24-.266-.654-.399-1.245-.399-.394 0-.691.074-.894.219a.684.684 0 0 0-.304.58c0 .264.133.475.399.633.155.093.383.175.683.247l.689.162c.748.178 1.251.35 1.505.514.405.258.608.666.608 1.223 0 .556-.21 1.002-.628 1.392-.419.391-1.057.588-1.913.588-.923 0-1.575-.205-1.959-.613-.384-.408-.589-.913-.617-1.513v-.002Zm9.605 1.895v-8.307h1.042V17.2c.247-.305.469-.519.666-.643.335-.213.754-.32 1.256-.32.899 0 1.508.308 1.829.92.174.334.26.797.26 1.392v3.871h-1.07v-3.804c0-.443-.059-.768-.174-.975-.19-.33-.544-.494-1.065-.494-.433 0-.825.145-1.175.432-.351.29-.527.837-.527 1.641v3.201h-1.042v-.002Zm6.566-6.035h1.066v4.008c0 .307.049.558.151.755.184.36.529.54 1.035.54.726 0 1.219-.316 1.482-.948.142-.337.214-.802.214-1.392v-2.963h1.042v6.036h-.984l.013-.891a2.062 2.062 0 0 1-.504.58c-.399.315-.88.473-1.448.473-.883 0-1.485-.287-1.806-.861-.174-.308-.26-.72-.26-1.233v-4.104h-.001Zm6.613 6.035v-6.036h1.03v.856c.248-.298.471-.514.673-.647.343-.23.732-.345 1.168-.345.493 0 .892.118 1.192.357.17.133.323.334.463.596a2.22 2.22 0 0 1 .817-.72 2.324 2.324 0 0 1 1.052-.233c.834 0 1.402.294 1.702.879.162.316.243.739.243 1.274v4.018h-1.081v-4.192c0-.403-.105-.68-.311-.83a1.25 1.25 0 0 0-.755-.224c-.41 0-.76.133-1.057.4-.295.268-.443.713-.443 1.336v3.512h-1.06v-3.942c0-.408-.049-.708-.15-.895-.157-.283-.454-.423-.886-.423-.394 0-.752.15-1.073.445-.323.296-.483.835-.483 1.612v3.201h-1.043.002Zm11.152-2.451c.19-.106.473-.182.851-.231l.632-.08c.192-.023.39-.06.59-.112.201-.054.365-.118.491-.199v.817c0 .623-.289 1.073-.867 1.347a2.41 2.41 0 0 1-1.066.249c-.301 0-.561-.084-.781-.254a.828.828 0 0 1-.329-.694c0-.386.16-.668.48-.844l-.001.001Zm-1.03-.433c-.359.307-.539.74-.539 1.302 0 .51.182.935.546 1.275.365.339.834.51 1.409.51.479 0 .916-.101 1.315-.299.396-.2.702-.433.914-.706.034.241.095.428.18.56.162.246.422.37.781.37.148 0 .263-.004.347-.017.085-.011.208-.037.371-.084v-.748a1.935 1.935 0 0 1-.342.034c-.142 0-.235-.032-.28-.096a.443.443 0 0 1-.066-.254v-3.477c0-.57-.225-.99-.678-1.262-.455-.269-1.046-.406-1.777-.406-.629 0-1.181.145-1.658.436-.476.293-.724.808-.744 1.555h.974c.038-.312.122-.548.249-.706.227-.285.614-.428 1.158-.428.47 0 .832.078 1.086.234.252.155.378.408.378.753a.87.87 0 0 1-.069.388c-.082.167-.242.265-.481.293l-1.661.202c-.582.072-1.053.26-1.412.57h-.001Zm6.341 2.885v-6.007h1.06v6.007h-1.06Zm0-7.129v-1.151h1.06v1.151h-1.06Zm2.632 7.128v-6.036h.99v.856c.293-.354.604-.607.932-.76a2.55 2.55 0 0 1 1.093-.232c.88 0 1.475.298 1.783.898.171.325.256.792.256 1.402v3.872h-1.06v-3.805c0-.367-.056-.664-.168-.89-.185-.375-.521-.564-1.007-.564-.248 0-.449.024-.609.074a1.553 1.553 0 0 0-.752.496 1.447 1.447 0 0 0-.338.617c-.053.212-.079.517-.079.911v3.162h-1.042l.001-.002Zm7.904-4.783a1.603 1.603 0 0 1 1.204-.505c.667 0 1.143.244 1.43.735.155.263.252.612.295 1.053h-3.444c.019-.519.191-.946.516-1.282l-.001-.001Zm-.853-.48c-.539.602-.809 1.391-.809 2.36 0 .967.268 1.749.806 2.297.535.546 1.189.82 1.961.82.316 0 .601-.032.852-.09a2.47 2.47 0 0 0 1.175-.61 2.65 2.65 0 0 0 .513-.668c.151-.271.241-.52.268-.741h-1.024a1.748 1.748 0 0 1-.395.706c-.322.35-.757.523-1.301.523-.583 0-1.013-.184-1.291-.554-.277-.369-.426-.861-.446-1.474h4.545c0-.61-.031-1.053-.092-1.33a2.668 2.668 0 0 0-.417-1.066c-.217-.317-.532-.578-.945-.78a2.873 2.873 0 0 0-1.278-.302c-.874 0-1.579.303-2.12.908h-.002Zm5.746 3.368h1.002c.031.34.117.599.26.78.262.325.717.49 1.366.49.386 0 .725-.082 1.02-.244.293-.165.439-.416.439-.76a.648.648 0 0 0-.353-.593c-.151-.082-.447-.177-.891-.287l-.828-.203c-.528-.127-.919-.268-1.169-.427-.447-.274-.672-.655-.672-1.137 0-.573.211-1.034.634-1.388.423-.354.992-.53 1.705-.53.933 0 1.608.268 2.021.8.258.339.384.704.375 1.093h-.983a1.164 1.164 0 0 0-.25-.625c-.24-.266-.654-.399-1.245-.399-.393 0-.691.074-.894.219a.684.684 0 0 0-.304.58c0 .264.134.475.4.633.155.093.382.175.683.247l.688.162c.749.178 1.251.35 1.504.514.406.258.609.666.609 1.223 0 .556-.209 1.002-.628 1.392-.42.391-1.056.588-1.912.588-.923 0-1.575-.205-1.96-.613-.384-.408-.588-.913-.615-1.513l-.002-.002Zm10.752-2.778c.327-.389.753-.585 1.278-.585.469 0 .865.182 1.186.549.32.365.481.93.481 1.695 0 .764-.156 1.333-.467 1.737-.311.405-.707.607-1.19.607-.62 0-1.073-.218-1.355-.654-.281-.436-.421-.977-.421-1.624 0-.76.163-1.333.488-1.725Zm-.897-.502c-.461.644-.691 1.405-.691 2.284 0 .94.252 1.692.757 2.258.506.565 1.104.848 1.795.848.428 0 .807-.082 1.141-.246.331-.168.618-.434.862-.807v.84h.937v-8.31h-1.001v3.049c-.234-.28-.444-.48-.63-.593-.322-.194-.718-.291-1.193-.291-.855 0-1.516.32-1.977.967Zm6.316-.86h1.065v4.008c0 .307.051.558.151.755.185.36.531.54 1.036.54.727 0 1.22-.316 1.482-.948.143-.337.215-.802.215-1.392v-2.963h1.042v6.036h-.983l.009-.891a2.04 2.04 0 0 1-.503.58c-.398.315-.88.473-1.448.473-.883 0-1.485-.287-1.805-.861-.174-.308-.261-.72-.261-1.233v-4.104Zm13.629-2.471c1.077 0 1.912.276 2.508.828.593.552.924 1.18.989 1.883h-1.121c-.129-.534-.382-.957-.761-1.269-.381-.312-.914-.467-1.601-.467-.838 0-1.513.287-2.029.859-.516.572-.774 1.451-.774 2.633 0 .971.233 1.757.698 2.36.465.603 1.159.903 2.08.903.85 0 1.496-.318 1.939-.952.237-.335.412-.773.527-1.319h1.124c-.102.871-.434 1.604-.998 2.193-.675.71-1.585 1.064-2.731 1.064-.988 0-1.818-.291-2.489-.873-.883-.77-1.325-1.96-1.325-3.569 0-1.22.331-2.222.996-3.004.718-.848 1.707-1.274 2.968-1.274v.004Zm6.115 6.055c.19-.106.473-.182.853-.231l.63-.08c.193-.023.39-.06.591-.112.2-.054.364-.118.492-.199v.817c0 .623-.289 1.073-.869 1.347a2.405 2.405 0 0 1-1.065.249c-.3 0-.562-.084-.782-.254a.83.83 0 0 1-.329-.694c0-.386.16-.668.481-.844l-.002.001Zm-1.03-.433c-.359.307-.537.74-.537 1.302 0 .51.181.935.546 1.275.364.339.834.51 1.408.51.479 0 .917-.101 1.315-.299.396-.2.702-.433.913-.706.036.241.095.428.18.56.162.246.423.37.782.37.146 0 .262-.004.348-.017.085-.011.208-.037.371-.084v-.748a2.063 2.063 0 0 1-.341.034c-.143 0-.237-.032-.28-.096a.443.443 0 0 1-.067-.254v-3.477c0-.57-.226-.99-.677-1.262-.456-.269-1.048-.406-1.778-.406-.629 0-1.181.145-1.658.436-.475.293-.725.808-.743 1.555h.972c.039-.312.123-.548.25-.706.228-.285.615-.428 1.157-.428.471 0 .832.078 1.087.234.252.155.378.408.378.753a.856.856 0 0 1-.07.388c-.08.167-.24.265-.479.293l-1.661.202c-.584.072-1.054.26-1.413.57h-.003Zm6.342 2.884v-6.036h.99v.856c.293-.354.604-.607.932-.76a2.55 2.55 0 0 1 1.094-.232c.878 0 1.474.298 1.782.898.17.325.255.792.255 1.402v3.872h-1.06v-3.805c0-.367-.057-.664-.167-.89-.185-.375-.521-.564-1.007-.564a2.1 2.1 0 0 0-.609.074 1.556 1.556 0 0 0-.753.496 1.472 1.472 0 0 0-.339.617c-.052.212-.078.517-.078.911v3.162h-1.043l.003-.002Zm7.871-2.451c.188-.106.471-.182.851-.231l.63-.08a4.44 4.44 0 0 0 .591-.112c.2-.054.365-.118.492-.199v.817c0 .623-.291 1.073-.869 1.347a2.41 2.41 0 0 1-1.066.249 1.24 1.24 0 0 1-.782-.254.83.83 0 0 1-.33-.694c0-.386.16-.668.481-.844l.002.001Zm-1.031-.433c-.358.307-.54.74-.54 1.302 0 .51.183.935.548 1.275.365.339.834.51 1.409.51.478 0 .916-.101 1.313-.299.398-.2.703-.433.915-.706.034.241.095.428.18.56.161.246.423.37.782.37.146 0 .263-.004.347-.017.085-.011.208-.037.371-.084v-.748a2.016 2.016 0 0 1-.341.034c-.143 0-.235-.032-.281-.096a.45.45 0 0 1-.065-.254v-3.477c0-.57-.227-.99-.678-1.262-.455-.269-1.047-.406-1.777-.406-.629 0-1.182.145-1.658.436-.477.293-.725.808-.744 1.555h.973c.038-.312.122-.548.249-.706.227-.285.613-.428 1.158-.428.471 0 .832.078 1.086.234.252.155.378.408.378.753a.87.87 0 0 1-.069.388c-.081.167-.241.265-.48.293l-1.661.202c-.584.072-1.054.26-1.412.57h-.003Zm7.49-1.789c.326-.389.752-.585 1.275-.585.471 0 .867.182 1.189.549.319.365.479.93.479 1.695 0 .764-.156 1.333-.466 1.737-.311.405-.707.607-1.188.607-.621 0-1.073-.218-1.356-.654-.281-.436-.422-.977-.422-1.624 0-.76.163-1.333.491-1.725h-.002Zm-.898-.502c-.462.644-.692 1.405-.692 2.284 0 .94.253 1.692.758 2.258.506.565 1.104.848 1.794.848.429 0 .808-.082 1.141-.246.331-.168.619-.434.863-.807v.84h.937v-8.31h-1.001v3.049c-.235-.28-.445-.48-.63-.593-.322-.194-.718-.291-1.194-.291-.855 0-1.515.32-1.976.967Zm7.618 2.724c.188-.106.473-.182.851-.231l.632-.08c.193-.023.389-.06.589-.112.201-.054.365-.118.492-.199v.817c0 .623-.288 1.073-.868 1.347a2.405 2.405 0 0 1-1.065.249c-.301 0-.563-.084-.781-.254a.828.828 0 0 1-.329-.694c0-.386.16-.668.48-.844l-.001.001Zm-1.03-.433c-.359.307-.539.74-.539 1.302 0 .51.181.935.546 1.275.366.339.835.51 1.41.51.477 0 .917-.101 1.313-.299.397-.2.702-.433.915-.706.036.241.093.428.18.56.162.246.421.37.781.37.147 0 .262-.004.347-.017a2.8 2.8 0 0 0 .371-.084v-.748a1.935 1.935 0 0 1-.341.034c-.144 0-.236-.032-.281-.096a.443.443 0 0 1-.066-.254v-3.477c0-.57-.227-.99-.677-1.262-.456-.269-1.048-.406-1.776-.406-.631 0-1.184.145-1.66.436-.476.293-.725.808-.744 1.555h.972c.038-.312.122-.548.249-.706.228-.285.613-.428 1.158-.428.47 0 .832.078 1.086.234.253.155.379.408.379.753a.886.886 0 0 1-.069.388c-.082.167-.242.265-.481.293l-1.661.202c-.584.072-1.053.26-1.412.57Z"/>
</svg>
