<?xml version="1.0" encoding="UTF-8"?>
<svg id="Calque_2" data-name="Calque 2" xmlns="http://www.w3.org/2000/svg" viewBox="0 0 3508.2 192.78">
  <defs>
    <style>
      .cls-1 {
        fill: #1d1d1b;
      }

      .cls-1, .cls-2 {
        stroke-width: 0px;
      }

      .cls-2 {
        fill: red;
      }
    </style>
  </defs>
  <g id="Layer_1" data-name="Layer 1">
    <g>
      <path class="cls-2" d="m187.43,16.62v.02s.02-.02.02-.02h-.02Zm38.82,109.03c1.08-.99,32.84-28.44,32.84-28.44l-3.18-1.54-2.02-.99c-3.13-1.47-2.64-4.11-2.15-5.89.49-1.75,5.72-20.1,5.72-20.1,0,0-13.7,3.07-16.91,3.56-2.55.4-3.43-.78-4.21-2.55-.78-1.75-4.11-9.79-4.11-9.79,0,0-16.78,18.57-17.14,18.92-3.23,2.93-6.37.69-5.78-2.74.53-3.14,8.62-40.27,8.62-40.27,0,0-8.92,5.3-11.86,7.05-2.94,1.77-4.51,1.47-6.07-1.37-1.56-2.84-12.49-24.73-12.56-24.86-.07.13-10.99,22.02-12.55,24.86-1.57,2.84-3.14,3.14-6.08,1.37-2.94-1.75-11.85-7.05-11.85-7.05,0,0,8.09,37.13,8.62,40.27.59,3.43-2.55,5.68-5.78,2.74-.36-.34-17.14-18.92-17.14-18.92,0,0-3.33,8.04-4.12,9.79-.78,1.77-1.66,2.95-4.21,2.55-3.2-.5-17.46-3.56-17.46-3.56,0,0,5.78,18.34,6.27,20.1.49,1.77.98,4.42-2.16,5.89l-2.01.99-3.18,1.54s31.76,27.45,32.84,28.44c1.07.97,3.13,1.85,1.56,6.53-1.56,4.7-3.82,11.09-3.82,11.09,0,0,29.39-5.98,32.53-6.67,3.13-.69,5.78.38,5.78,3.52s-1.28,34.57-1.28,34.57h8.07s-1.28-31.43-1.28-34.57,2.65-4.21,5.78-3.52c3.13.69,32.52,6.67,32.52,6.67,0,0-2.25-6.38-3.82-11.09-1.57-4.69.49-5.56,1.57-6.53Z"/>
      <rect class="cls-2" x="283.59" y=".47" width="93.31" height="191.46"/>
      <rect class="cls-2" x="0" y=".41" width="93.31" height="191.44"/>
    </g>
    <g>
      <path class="cls-1" d="m569.94,50.91h9.01c.22,4.02,1.17,7.28,2.84,9.79,3.19,4.69,8.79,7.03,16.83,7.03,3.6,0,6.88-.51,9.84-1.54,5.72-1.98,8.58-5.56,8.58-10.71,0-3.85-1.21-6.59-3.62-8.23-2.44-1.62-6.27-3.01-11.47-4.21l-9.6-2.17c-6.27-1.41-10.7-2.97-13.31-4.67-4.5-2.95-6.75-7.37-6.75-13.26,0-6.36,2.2-11.58,6.6-15.68,4.4-4.08,10.64-6.12,18.71-6.12,7.43,0,13.73,1.79,18.92,5.37,5.19,3.58,7.79,9.31,7.79,17.18h-9.02c-.48-3.79-1.51-6.69-3.09-8.72-2.92-3.7-7.89-5.54-14.9-5.54-5.66,0-9.73,1.2-12.2,3.56-2.48,2.38-3.71,5.14-3.71,8.3,0,3.47,1.45,6,4.34,7.62,1.89,1.03,6.19,2.3,12.87,3.85l9.93,2.27c4.79,1.1,8.49,2.59,11.09,4.5,4.5,3.31,6.75,8.11,6.75,14.4,0,7.85-2.85,13.47-8.56,16.84-5.7,3.37-12.34,5.07-19.89,5.07-8.81,0-15.7-2.25-20.68-6.76-4.99-4.46-7.43-10.51-7.33-18.17Z"/>
      <path class="cls-1" d="m646.41,62.68c-2.41-3.68-3.61-8.25-3.61-13.75s1.21-10.61,3.61-14.65c2.41-4.06,6.27-6.08,11.57-6.08,5.98,0,10.19,2.38,12.63,7.12,1.54,3.03,2.31,6.95,2.31,11.77,0,5.33-1.07,10.19-3.21,14.53-2.14,4.36-6.08,6.53-11.83,6.53-5.24,0-9.07-1.83-11.48-5.49Zm-5.93-34.34c-4.4,5.14-6.61,12.06-6.61,20.74,0,8.1,2.09,14.55,6.27,19.35,4.18,4.8,9.82,7.22,16.93,7.22,8.51,0,14.8-2.72,18.85-8.15,4.05-5.43,6.08-12.32,6.08-20.65s-2.3-15.12-6.9-19.56c-4.6-4.44-10.22-6.67-16.88-6.67-7.42,0-13.34,2.57-17.74,7.71Z"/>
      <path class="cls-1" d="m712.2,20.62c5.81,0,10.55,1.43,14.2,4.25,3.65,2.84,5.84,7.69,6.58,14.61h-8.44c-.51-3.18-1.69-5.83-3.52-7.92-1.83-2.11-4.77-3.16-8.82-3.16-5.53,0-9.49,2.7-11.86,8.1-1.54,3.51-2.31,7.83-2.31,12.97s1.09,9.52,3.28,13.07c2.19,3.54,5.62,5.3,10.32,5.3,3.6,0,6.45-1.09,8.56-3.3,2.1-2.21,3.56-5.22,4.36-9.05h8.44c-.96,6.86-3.37,11.87-7.23,15.03-3.86,3.16-8.8,4.74-14.81,4.74-6.75,0-12.13-2.46-16.15-7.39-4.02-4.93-6.02-11.11-6.02-18.5,0-9.07,2.2-16.11,6.6-21.16,4.4-5.05,10.01-7.58,16.83-7.58Z"/>
      <path class="cls-1" d="m741.66,73.76V22.37h8.82v51.39h-8.82Zm0-60.99V2.92h8.82v9.85h-8.82Z"/>
      <path class="cls-1" d="m774.23,52.79c1.58-.91,3.94-1.56,7.09-1.98l5.25-.69c1.61-.19,3.25-.51,4.92-.95,1.67-.46,3.04-1.01,4.1-1.7v6.99c0,5.33-2.41,9.18-7.23,11.52-2.86,1.43-5.82,2.13-8.87,2.13-2.51,0-4.68-.72-6.51-2.17-1.83-1.45-2.75-3.43-2.75-5.94,0-3.3,1.33-5.71,4-7.22Zm-8.58-3.71c-2.99,2.63-4.49,6.34-4.49,11.14,0,4.36,1.52,8,4.56,10.91,3.04,2.9,6.95,4.36,11.74,4.36,3.99,0,7.63-.86,10.94-2.55,3.31-1.71,5.85-3.71,7.62-6.04.29,2.06.79,3.66,1.5,4.78,1.35,2.11,3.52,3.18,6.51,3.18,1.22,0,2.19-.04,2.89-.15.71-.1,1.73-.32,3.09-.72v-6.4c-.55.1-1.06.17-1.54.21-.48.06-.91.08-1.3.08-1.19,0-1.97-.27-2.34-.82-.37-.55-.56-1.28-.56-2.17v-29.75c0-4.88-1.88-8.48-5.64-10.8-3.79-2.3-8.72-3.47-14.8-3.47-5.24,0-9.84,1.24-13.81,3.73-3.97,2.5-6.03,6.91-6.2,13.3h8.1c.32-2.67,1.01-4.69,2.08-6.04,1.89-2.44,5.11-3.66,9.64-3.66,3.92,0,6.93.67,9.04,2,2.1,1.33,3.16,3.49,3.16,6.44,0,1.45-.19,2.55-.58,3.31-.68,1.43-2.01,2.27-4,2.51l-13.84,1.73c-4.85.61-8.77,2.23-11.76,4.88Z"/>
      <path class="cls-1" d="m818.71,73.76V2.92h8.68v70.84h-8.68Z"/>
      <path class="cls-1" d="m866.23,50.91h9.02c.22,4.02,1.17,7.28,2.85,9.79,3.17,4.69,8.78,7.03,16.82,7.03,3.6,0,6.88-.51,9.84-1.54,5.72-1.98,8.58-5.56,8.58-10.71,0-3.85-1.2-6.59-3.62-8.23-2.45-1.62-6.27-3.01-11.47-4.21l-9.6-2.17c-6.27-1.41-10.7-2.97-13.31-4.67-4.5-2.95-6.74-7.37-6.74-13.26,0-6.36,2.2-11.58,6.61-15.68,4.4-4.08,10.63-6.12,18.7-6.12,7.44,0,13.74,1.79,18.93,5.37,5.19,3.58,7.78,9.31,7.78,17.18h-9.01c-.49-3.79-1.51-6.69-3.09-8.72-2.93-3.7-7.89-5.54-14.9-5.54-5.66,0-9.72,1.2-12.2,3.56-2.48,2.38-3.72,5.14-3.72,8.3,0,3.47,1.46,6,4.34,7.62,1.9,1.03,6.19,2.3,12.88,3.85l9.93,2.27c4.78,1.1,8.49,2.59,11.1,4.5,4.5,3.31,6.74,8.11,6.74,14.4,0,7.85-2.86,13.47-8.55,16.84-5.71,3.37-12.34,5.07-19.9,5.07-8.81,0-15.7-2.25-20.68-6.76-4.99-4.46-7.43-10.51-7.33-18.17Z"/>
      <path class="cls-1" d="m953.6,20.62c5.82,0,10.55,1.43,14.2,4.25,3.65,2.84,5.85,7.69,6.58,14.61h-8.44c-.51-3.18-1.69-5.83-3.51-7.92-1.84-2.11-4.78-3.16-8.83-3.16-5.53,0-9.48,2.7-11.86,8.1-1.54,3.51-2.32,7.83-2.32,12.97s1.11,9.52,3.29,13.07c2.18,3.54,5.63,5.3,10.31,5.3,3.6,0,6.46-1.09,8.56-3.3,2.1-2.21,3.55-5.22,4.36-9.05h8.44c-.96,6.86-3.38,11.87-7.23,15.03-3.87,3.16-8.8,4.74-14.8,4.74-6.75,0-12.13-2.46-16.15-7.39-4.02-4.93-6.04-11.11-6.04-18.5,0-9.07,2.21-16.11,6.61-21.16,4.4-5.05,10.02-7.58,16.83-7.58Z"/>
      <path class="cls-1" d="m991.87,12.77V2.92h-8.82v9.85h8.82Zm0,60.99V22.37h-8.82v51.39h8.82Z"/>
      <path class="cls-1" d="m1015.91,32.85c2.71-2.88,6.05-4.32,10.04-4.32,5.55,0,9.52,2.09,11.91,6.29,1.29,2.25,2.11,5.24,2.46,9.01h-28.69c.15-4.44,1.59-8.09,4.29-10.97Zm-7.09-4.11c-4.5,5.16-6.74,11.91-6.74,20.19s2.23,14.97,6.7,19.66c4.47,4.67,9.91,7.01,16.35,7.01,2.63,0,4.99-.27,7.09-.76,3.89-.91,7.14-2.65,9.78-5.22,1.57-1.47,3-3.37,4.27-5.72,1.27-2.32,2.02-4.44,2.24-6.34h-8.53c-.64,2.29-1.73,4.3-3.28,6.04-2.7,2.99-6.31,4.48-10.84,4.48-4.86,0-8.44-1.58-10.76-4.74-2.31-3.16-3.54-7.37-3.71-12.61h37.85c0-5.22-.25-9.01-.76-11.39-.58-3.47-1.73-6.5-3.48-9.11-1.8-2.72-4.42-4.95-7.86-6.67-3.45-1.73-6.99-2.59-10.66-2.59-7.27,0-13.15,2.59-17.65,7.77Z"/>
      <path class="cls-1" d="m1059.87,73.76V22.12h8.24v7.33c2.45-3.03,5.03-5.2,7.77-6.51,2.72-1.31,5.77-1.98,9.11-1.98,7.33,0,12.29,2.55,14.86,7.68,1.41,2.78,2.11,6.78,2.11,12v33.12h-8.82v-32.55c0-3.14-.47-5.68-1.4-7.62-1.54-3.2-4.33-4.82-8.39-4.82-2.06,0-3.74.21-5.07.63-2.37.71-4.46,2.11-6.27,4.25-1.45,1.7-2.38,3.47-2.82,5.28-.43,1.81-.65,4.42-.65,7.79v27.05h-8.68Z"/>
      <path class="cls-1" d="m1134.68,20.62c5.81,0,10.54,1.43,14.19,4.25,3.66,2.84,5.85,7.69,6.58,14.61h-8.43c-.52-3.18-1.7-5.83-3.52-7.92-1.83-2.11-4.78-3.16-8.82-3.16-5.54,0-9.49,2.7-11.87,8.1-1.54,3.51-2.31,7.83-2.31,12.97s1.1,9.52,3.28,13.07c2.18,3.54,5.63,5.3,10.31,5.3,3.6,0,6.46-1.09,8.56-3.3,2.1-2.21,3.56-5.22,4.37-9.05h8.43c-.96,6.86-3.37,11.87-7.23,15.03-3.86,3.16-8.79,4.74-14.8,4.74-6.75,0-12.13-2.46-16.15-7.39-4.02-4.93-6.03-11.11-6.03-18.5,0-9.07,2.2-16.11,6.6-21.16,4.41-5.05,10.02-7.58,16.84-7.58Z"/>
      <path class="cls-1" d="m1175.08,32.85c2.7-2.88,6.04-4.32,10.02-4.32,5.56,0,9.54,2.09,11.92,6.29,1.29,2.25,2.1,5.24,2.47,9.01h-28.7c.16-4.44,1.59-8.09,4.3-10.97Zm-7.09-4.11c-4.5,5.16-6.75,11.91-6.75,20.19s2.24,14.97,6.7,19.66c4.48,4.67,9.92,7.01,16.34,7.01,2.65,0,5.01-.27,7.1-.76,3.89-.91,7.15-2.65,9.78-5.22,1.58-1.47,3-3.37,4.27-5.72,1.28-2.32,2.02-4.44,2.25-6.34h-8.53c-.65,2.29-1.73,4.3-3.28,6.04-2.7,2.99-6.32,4.48-10.86,4.48-4.85,0-8.44-1.58-10.74-4.74-2.32-3.16-3.56-7.37-3.72-12.61h37.85c0-5.22-.26-9.01-.77-11.39-.58-3.47-1.74-6.5-3.48-9.11-1.79-2.72-4.42-4.95-7.86-6.67-3.44-1.73-6.99-2.59-10.66-2.59-7.26,0-13.14,2.59-17.64,7.77Z"/>
      <path class="cls-1" d="m1215.85,57.55h8.34c.26,2.9.97,5.12,2.17,6.67,2.18,2.78,5.98,4.19,11.37,4.19,3.22,0,6.05-.7,8.5-2.09,2.44-1.41,3.66-3.56,3.66-6.5,0-2.21-.98-3.91-2.93-5.07-1.26-.7-3.73-1.52-7.43-2.46l-6.9-1.73c-4.4-1.09-7.66-2.3-9.74-3.66-3.72-2.34-5.59-5.6-5.59-9.73,0-4.9,1.75-8.84,5.28-11.87,3.52-3.03,8.26-4.53,14.2-4.53,7.78,0,13.39,2.29,16.83,6.84,2.15,2.9,3.2,6.02,3.13,9.35h-8.2c-.15-1.94-.85-3.73-2.07-5.35-1.99-2.27-5.46-3.41-10.37-3.41-3.28,0-5.75.63-7.45,1.87-1.69,1.26-2.53,2.91-2.53,4.97,0,2.25,1.11,4.06,3.33,5.41,1.28.8,3.18,1.5,5.69,2.11l5.74,1.39c6.23,1.52,10.41,2.99,12.53,4.4,3.37,2.21,5.07,5.7,5.07,10.46s-1.75,8.57-5.24,11.91c-3.49,3.35-8.8,5.03-15.93,5.03-7.69,0-13.12-1.75-16.32-5.24-3.19-3.49-4.9-7.81-5.13-12.95Z"/>
      <path class="cls-1" d="m1306.5,52.79c1.57-.91,3.93-1.56,7.09-1.98l5.26-.69c1.6-.19,3.24-.51,4.91-.95,1.68-.46,3.04-1.01,4.1-1.7v6.99c0,5.33-2.41,9.18-7.23,11.52-2.87,1.43-5.82,2.13-8.87,2.13-2.51,0-4.69-.72-6.51-2.17-1.83-1.45-2.74-3.43-2.74-5.94,0-3.3,1.33-5.71,4-7.22Zm-8.59-3.71c-2.99,2.63-4.48,6.34-4.48,11.14,0,4.36,1.51,8,4.55,10.91,3.04,2.9,6.95,4.36,11.73,4.36,3.99,0,7.64-.86,10.95-2.55,3.31-1.71,5.85-3.71,7.62-6.04.29,2.06.78,3.66,1.49,4.78,1.35,2.11,3.52,3.18,6.51,3.18,1.22,0,2.19-.04,2.89-.15.71-.1,1.73-.32,3.09-.72v-6.4c-.55.1-1.07.17-1.54.21-.48.06-.91.08-1.3.08-1.2,0-1.98-.27-2.34-.82-.37-.55-.55-1.28-.55-2.17v-29.75c0-4.88-1.89-8.48-5.65-10.8-3.79-2.3-8.72-3.47-14.8-3.47-5.25,0-9.84,1.24-13.82,3.73-3.96,2.5-6.03,6.91-6.19,13.3h8.1c.32-2.67,1.02-4.69,2.08-6.04,1.9-2.44,5.11-3.66,9.64-3.66,3.92,0,6.94.67,9.05,2,2.1,1.33,3.16,3.49,3.16,6.44,0,1.45-.19,2.55-.58,3.31-.68,1.43-2.01,2.27-4.01,2.51l-13.83,1.73c-4.86.61-8.78,2.23-11.77,4.88Z"/>
      <path class="cls-1" d="m1350.73,73.76V22.12h8.25v7.33c2.44-3.03,5.03-5.2,7.76-6.51,2.73-1.31,5.77-1.98,9.11-1.98,7.33,0,12.28,2.55,14.85,7.68,1.42,2.78,2.12,6.78,2.12,12v33.12h-8.82v-32.55c0-3.14-.48-5.68-1.41-7.62-1.54-3.2-4.33-4.82-8.38-4.82-2.06,0-3.75.21-5.07.63-2.38.71-4.47,2.11-6.27,4.25-1.45,1.7-2.38,3.47-2.82,5.28-.44,1.81-.65,4.42-.65,7.79v27.05h-8.69Z"/>
      <path class="cls-1" d="m1415.2,33.78c2.71-3.33,6.26-5.01,10.64-5.01,3.91,0,7.21,1.56,9.88,4.7,2.67,3.12,4.01,7.96,4.01,14.5s-1.3,11.41-3.89,14.86c-2.59,3.47-5.9,5.2-9.9,5.2-5.18,0-8.94-1.87-11.3-5.6-2.34-3.73-3.51-8.36-3.51-13.89,0-6.5,1.36-11.41,4.08-14.76Zm-7.48-4.3c-3.84,5.51-5.75,12.02-5.75,19.54,0,8.04,2.1,14.48,6.31,19.32,4.21,4.84,9.2,7.26,14.95,7.26,3.56,0,6.73-.7,9.5-2.11,2.77-1.43,5.16-3.71,7.19-6.9v7.18h7.81V2.69h-8.34v26.08c-1.96-2.4-3.71-4.1-5.26-5.07-2.67-1.66-5.98-2.49-9.93-2.49-7.13,0-12.62,2.74-16.47,8.27Z"/>
      <path class="cls-1" d="m1489.35,73.76V2.92h9.69v29.28h36.84V2.92h9.7v70.84h-9.7v-33.12h-36.84v33.12h-9.69Z"/>
      <path class="cls-1" d="m1559.05,22.12h8.87v34.29c0,2.63.42,4.78,1.26,6.46,1.54,3.09,4.42,4.63,8.63,4.63,6.04,0,10.15-2.71,12.34-8.12,1.19-2.88,1.79-6.86,1.79-11.91v-25.35h8.68v51.64h-8.2l.09-7.62c-1.12,1.96-2.51,3.62-4.19,4.97-3.31,2.69-7.33,4.04-12.06,4.04-7.35,0-12.37-2.46-15.05-7.37-1.44-2.63-2.16-6.15-2.16-10.55V22.12Z"/>
      <path class="cls-1" d="m1614.14,73.76V22.12h8.58v7.33c2.06-2.55,3.92-4.4,5.6-5.54,2.86-1.96,6.1-2.95,9.73-2.95,4.11,0,7.43,1.01,9.93,3.05,1.41,1.14,2.7,2.86,3.86,5.1,1.92-2.76,4.19-4.82,6.8-6.15,2.6-1.33,5.52-2,8.77-2,6.94,0,11.67,2.51,14.18,7.52,1.34,2.7,2.02,6.32,2.02,10.9v34.38h-9.01v-35.87c0-3.45-.87-5.81-2.59-7.1-1.71-1.28-3.81-1.92-6.29-1.92-3.41,0-6.34,1.14-8.8,3.43-2.46,2.29-3.7,6.1-3.7,11.43v30.04h-8.82v-33.72c0-3.49-.42-6.06-1.26-7.66-1.31-2.42-3.77-3.62-7.37-3.62-3.28,0-6.27,1.28-8.94,3.81-2.68,2.53-4.03,7.14-4.03,13.79v27.39h-8.68Z"/>
      <path class="cls-1" d="m1707.03,52.79c1.57-.91,3.93-1.56,7.09-1.98l5.26-.69c1.6-.19,3.24-.51,4.92-.95,1.68-.46,3.04-1.01,4.1-1.7v6.99c0,5.33-2.4,9.18-7.23,11.52-2.87,1.43-5.82,2.13-8.87,2.13-2.51,0-4.69-.72-6.51-2.17-1.83-1.45-2.74-3.43-2.74-5.94,0-3.3,1.33-5.71,4-7.22Zm-8.59-3.71c-2.98,2.63-4.48,6.34-4.48,11.14,0,4.36,1.51,8,4.55,10.91,3.04,2.9,6.95,4.36,11.74,4.36,3.99,0,7.63-.86,10.94-2.55,3.31-1.71,5.85-3.71,7.62-6.04.29,2.06.78,3.66,1.5,4.78,1.34,2.11,3.52,3.18,6.51,3.18,1.22,0,2.19-.04,2.9-.15.71-.1,1.73-.32,3.09-.72v-6.4c-.55.1-1.06.17-1.54.21-.48.06-.91.08-1.3.08-1.2,0-1.98-.27-2.34-.82-.37-.55-.55-1.28-.55-2.17v-29.75c0-4.88-1.89-8.48-5.64-10.8-3.8-2.3-8.73-3.47-14.81-3.47-5.24,0-9.84,1.24-13.81,3.73-3.97,2.5-6.04,6.91-6.2,13.3h8.09c.32-2.67,1.02-4.69,2.08-6.04,1.9-2.44,5.11-3.66,9.65-3.66,3.91,0,6.93.67,9.04,2,2.11,1.33,3.16,3.49,3.16,6.44,0,1.45-.19,2.55-.58,3.31-.68,1.43-2.01,2.27-4,2.51l-13.84,1.73c-4.86.61-8.78,2.23-11.77,4.88Z"/>
      <path class="cls-1" d="m1751.26,73.76V22.12h8.25v7.33c2.44-3.03,5.03-5.2,7.77-6.51,2.72-1.31,5.76-1.98,9.11-1.98,7.33,0,12.29,2.55,14.86,7.68,1.41,2.78,2.11,6.78,2.11,12v33.12h-8.82v-32.55c0-3.14-.48-5.68-1.4-7.62-1.54-3.2-4.33-4.82-8.39-4.82-2.06,0-3.75.21-5.07.63-2.38.71-4.46,2.11-6.27,4.25-1.45,1.7-2.38,3.47-2.82,5.28-.44,1.81-.65,4.42-.65,7.79v27.05h-8.69Z"/>
      <path class="cls-1" d="m1806.16,73.76V22.37h8.82v51.39h-8.82Zm0-60.99V2.92h8.82v9.85h-8.82Z"/>
      <path class="cls-1" d="m1829.82,22.12V7.71h8.77v14.42h8.24v7.09h-8.24v33.7c0,1.81.61,3.01,1.83,3.62.68.36,1.8.53,3.38.53.42,0,.86,0,1.34-.02.49-.02,1.05-.06,1.69-.13v6.86c-.99.29-2.03.5-3.11.63-1.08.11-2.25.19-3.5.19-4.05,0-6.8-1.05-8.25-3.1-1.44-2.08-2.16-4.78-2.16-8.08V29.21h-6.99v-7.09h6.99Z"/>
      <path class="cls-1" d="m1855.51,73.76V22.37h8.82v51.39h-8.82Zm0-60.99V2.92h8.82v9.85h-8.82Z"/>
      <path class="cls-1" d="m1888.37,32.85c2.7-2.88,6.04-4.32,10.03-4.32,5.55,0,9.53,2.09,11.91,6.29,1.28,2.25,2.09,5.24,2.46,9.01h-28.69c.15-4.44,1.58-8.09,4.29-10.97Zm-7.09-4.11c-4.5,5.16-6.75,11.91-6.75,20.19s2.24,14.97,6.7,19.66c4.48,4.67,9.92,7.01,16.35,7.01,2.64,0,5-.27,7.09-.76,3.9-.91,7.15-2.65,9.78-5.22,1.58-1.47,3.01-3.37,4.27-5.72,1.28-2.32,2.02-4.44,2.25-6.34h-8.53c-.65,2.29-1.73,4.3-3.28,6.04-2.7,2.99-6.32,4.48-10.86,4.48-4.85,0-8.43-1.58-10.74-4.74-2.31-3.16-3.56-7.37-3.71-12.61h37.85c0-5.22-.26-9.01-.77-11.39-.58-3.47-1.74-6.5-3.48-9.11-1.79-2.72-4.42-4.95-7.85-6.67-3.45-1.73-7-2.59-10.67-2.59-7.26,0-13.14,2.59-17.64,7.77Z"/>
      <path class="cls-1" d="m1929.14,57.55h8.34c.26,2.9.98,5.12,2.17,6.67,2.18,2.78,5.98,4.19,11.37,4.19,3.22,0,6.05-.7,8.5-2.09,2.44-1.41,3.66-3.56,3.66-6.5,0-2.21-.97-3.91-2.93-5.07-1.26-.7-3.73-1.52-7.43-2.46l-6.9-1.73c-4.4-1.09-7.66-2.3-9.73-3.66-3.73-2.34-5.6-5.6-5.6-9.73,0-4.9,1.76-8.84,5.28-11.87,3.52-3.03,8.26-4.53,14.21-4.53,7.77,0,13.38,2.29,16.82,6.84,2.15,2.9,3.2,6.02,3.13,9.35h-8.2c-.15-1.94-.85-3.73-2.07-5.35-1.99-2.27-5.45-3.41-10.37-3.41-3.28,0-5.75.63-7.45,1.87-1.69,1.26-2.53,2.91-2.53,4.97,0,2.25,1.11,4.06,3.33,5.41,1.28.8,3.18,1.5,5.69,2.11l5.74,1.39c6.23,1.52,10.41,2.99,12.53,4.4,3.37,2.21,5.07,5.7,5.07,10.46s-1.75,8.57-5.24,11.91c-3.49,3.35-8.8,5.03-15.93,5.03-7.69,0-13.12-1.75-16.32-5.24-3.2-3.49-4.91-7.81-5.14-12.95Z"/>
      <path class="cls-1" d="m583.44,128.21h23.43c3.28,0,5.9.5,7.86,1.45,3.66,1.83,5.5,5.28,5.5,10.32,0,4.69-1.31,7.94-3.93,9.73-2.62,1.81-6.18,2.7-10.68,2.7h-22.18v-24.21Zm0,62.59v-30.38h21.84c3.92,0,6.8.44,8.63,1.3,3.21,1.58,4.93,4.69,5.16,9.31l.58,11.81c.13,2.76.29,4.63.49,5.6.19.95.45,1.75.77,2.36h11.76v-1.6c-1.48-.63-2.5-2.08-3.09-4.34-.35-1.31-.58-3.31-.67-6.02l-.34-9.51c-.16-4.11-.94-7.09-2.34-8.92-1.4-1.83-3.48-3.31-6.25-4.44,3.15-1.64,5.6-3.81,7.35-6.5,1.75-2.7,2.63-6.17,2.63-10.42,0-8.13-3.32-13.72-9.98-16.74-3.5-1.56-7.95-2.36-13.35-2.36h-32.79v70.84h9.6Z"/>
      <path class="cls-1" d="m653.76,149.88c2.7-2.88,6.04-4.32,10.03-4.32,5.56,0,9.53,2.09,11.91,6.29,1.29,2.25,2.11,5.24,2.46,9.01h-28.69c.16-4.44,1.59-8.09,4.29-10.97Zm-7.09-4.11c-4.5,5.16-6.75,11.91-6.75,20.19s2.23,14.97,6.7,19.66c4.47,4.67,9.92,7.01,16.35,7.01,2.63,0,5-.27,7.09-.76,3.89-.91,7.15-2.65,9.79-5.22,1.58-1.47,3-3.37,4.27-5.72,1.27-2.32,2.01-4.44,2.24-6.34h-8.54c-.64,2.29-1.73,4.31-3.28,6.04-2.7,2.99-6.32,4.48-10.85,4.48-4.86,0-8.44-1.58-10.75-4.74-2.31-3.16-3.55-7.37-3.71-12.61h37.85c0-5.22-.26-9.01-.77-11.39-.58-3.47-1.73-6.5-3.47-9.11-1.8-2.72-4.42-4.95-7.86-6.67-3.44-1.73-6.99-2.59-10.66-2.59-7.26,0-13.15,2.59-17.64,7.77Z"/>
      <path class="cls-1" d="m694.53,174.59h8.34c.26,2.9.98,5.12,2.17,6.67,2.19,2.78,5.98,4.19,11.38,4.19,3.21,0,6.04-.7,8.49-2.09,2.44-1.41,3.67-3.56,3.67-6.5,0-2.21-.98-3.91-2.94-5.07-1.25-.7-3.73-1.52-7.42-2.46l-6.9-1.73c-4.4-1.09-7.65-2.3-9.74-3.66-3.73-2.34-5.6-5.6-5.6-9.73,0-4.9,1.76-8.84,5.28-11.87,3.52-3.03,8.25-4.53,14.2-4.53,7.78,0,13.39,2.29,16.83,6.84,2.15,2.9,3.2,6.02,3.13,9.35h-8.2c-.16-1.94-.85-3.73-2.07-5.35-2-2.27-5.45-3.41-10.37-3.41-3.28,0-5.76.63-7.45,1.87-1.69,1.26-2.53,2.91-2.53,4.97,0,2.25,1.11,4.06,3.33,5.41,1.29.8,3.18,1.5,5.69,2.11l5.73,1.39c6.24,1.52,10.42,2.99,12.54,4.4,3.38,2.21,5.06,5.7,5.06,10.46s-1.74,8.57-5.23,11.91c-3.49,3.35-8.8,5.03-15.94,5.03-7.68,0-13.12-1.75-16.32-5.24-3.2-3.49-4.91-7.81-5.13-12.95Z"/>
      <path class="cls-1" d="m758.03,149.88c2.7-2.88,6.04-4.32,10.03-4.32,5.56,0,9.53,2.09,11.91,6.29,1.29,2.25,2.1,5.24,2.46,9.01h-28.69c.16-4.44,1.59-8.09,4.29-10.97Zm-7.09-4.11c-4.5,5.16-6.75,11.91-6.75,20.19s2.23,14.97,6.71,19.66c4.47,4.67,9.91,7.01,16.34,7.01,2.64,0,5-.27,7.09-.76,3.89-.91,7.15-2.65,9.79-5.22,1.58-1.47,3-3.37,4.27-5.72,1.27-2.32,2.01-4.44,2.24-6.34h-8.53c-.64,2.29-1.74,4.31-3.28,6.04-2.7,2.99-6.32,4.48-10.85,4.48-4.86,0-8.44-1.58-10.75-4.74-2.31-3.16-3.55-7.37-3.71-12.61h37.85c0-5.22-.26-9.01-.77-11.39-.58-3.47-1.74-6.5-3.47-9.11-1.8-2.72-4.42-4.95-7.86-6.67-3.44-1.73-6.99-2.59-10.65-2.59-7.27,0-13.15,2.59-17.65,7.77Z"/>
      <path class="cls-1" d="m812.64,169.83c1.57-.91,3.94-1.56,7.09-1.98l5.26-.69c1.61-.19,3.25-.51,4.91-.95,1.67-.46,3.05-1.01,4.11-1.7v6.99c0,5.33-2.42,9.18-7.24,11.53-2.86,1.43-5.81,2.13-8.87,2.13-2.5,0-4.68-.72-6.51-2.17-1.83-1.45-2.75-3.43-2.75-5.94,0-3.3,1.33-5.71,4-7.22Zm-8.58-3.71c-2.99,2.63-4.49,6.34-4.49,11.14,0,4.36,1.52,8,4.56,10.91,3.04,2.9,6.95,4.36,11.74,4.36,3.99,0,7.63-.86,10.94-2.55,3.31-1.71,5.86-3.71,7.62-6.04.3,2.06.79,3.66,1.5,4.78,1.35,2.11,3.52,3.18,6.51,3.18,1.22,0,2.18-.04,2.9-.15.7-.1,1.73-.32,3.09-.72v-6.4c-.55.1-1.07.17-1.54.21-.49.06-.92.08-1.31.08-1.19,0-1.96-.27-2.33-.82-.37-.55-.55-1.28-.55-2.17v-29.75c0-4.88-1.89-8.48-5.65-10.8-3.79-2.3-8.72-3.47-14.8-3.47-5.24,0-9.85,1.24-13.81,3.73-3.97,2.5-6.04,6.91-6.2,13.3h8.1c.32-2.67,1.01-4.69,2.07-6.04,1.89-2.44,5.11-3.66,9.64-3.66,3.92,0,6.93.67,9.04,2,2.11,1.33,3.16,3.49,3.16,6.44,0,1.45-.19,2.55-.58,3.31-.67,1.43-2.01,2.27-4,2.51l-13.84,1.73c-4.85.61-8.78,2.23-11.76,4.88Z"/>
      <path class="cls-1" d="m857.11,190.8v-51.64h8.24v8.92c.68-1.73,2.33-3.85,4.97-6.34,2.64-2.48,5.68-3.73,9.12-3.73.16,0,.44.02.82.06.39.02,1.05.1,1.98.19v9.16c-.52-.09-.99-.17-1.42-.19-.45-.04-.91-.06-1.43-.06-4.37,0-7.73,1.41-10.08,4.21-2.35,2.82-3.52,6.06-3.52,9.73v29.7h-8.68Z"/>
      <path class="cls-1" d="m909.64,137.65c5.83,0,10.55,1.43,14.21,4.25,3.64,2.84,5.84,7.7,6.57,14.61h-8.44c-.51-3.18-1.68-5.83-3.51-7.92-1.84-2.11-4.77-3.16-8.83-3.16-5.52,0-9.48,2.7-11.85,8.1-1.54,3.51-2.31,7.83-2.31,12.97s1.09,9.52,3.27,13.07c2.19,3.54,5.63,5.3,10.32,5.3,3.6,0,6.45-1.09,8.56-3.3,2.1-2.21,3.55-5.22,4.35-9.05h8.44c-.95,6.86-3.37,11.87-7.23,15.03-3.86,3.16-8.79,4.74-14.8,4.74-6.75,0-12.13-2.46-16.15-7.39-4.02-4.93-6.02-11.11-6.02-18.5,0-9.07,2.19-16.11,6.6-21.16,4.4-5.05,10.01-7.58,16.82-7.58Z"/>
      <path class="cls-1" d="m939.11,190.8v-71.07h8.68v26.42c2.06-2.61,3.9-4.44,5.54-5.5,2.8-1.83,6.29-2.74,10.47-2.74,7.49,0,12.57,2.63,15.24,7.87,1.45,2.86,2.17,6.82,2.17,11.91v33.12h-8.92v-32.55c0-3.79-.49-6.57-1.45-8.34-1.57-2.82-4.53-4.23-8.87-4.23-3.6,0-6.87,1.24-9.79,3.7-2.93,2.48-4.39,7.16-4.39,14.04v27.39h-8.68Z"/>
      <path class="cls-1" d="m1052.44,118.03c8.97,0,15.93,2.36,20.89,7.09,4.94,4.72,7.7,10.1,8.24,16.11h-9.35c-1.06-4.57-3.17-8.19-6.34-10.86-3.17-2.67-7.61-4-13.32-4-6.98,0-12.61,2.46-16.91,7.35-4.3,4.89-6.44,12.42-6.44,22.53,0,8.31,1.93,15.03,5.81,20.19,3.88,5.16,9.65,7.73,17.33,7.73,7.08,0,12.46-2.72,16.15-8.15,1.96-2.86,3.42-6.61,4.39-11.28h9.35c-.84,7.45-3.6,13.72-8.3,18.76-5.63,6.08-13.21,9.1-22.75,9.1-8.23,0-15.14-2.49-20.74-7.47-7.35-6.59-11.03-16.76-11.03-30.53,0-10.44,2.76-19.01,8.29-25.7,5.98-7.26,14.23-10.9,24.74-10.9Z"/>
      <path class="cls-1" d="m1101.74,179.71c-2.42-3.68-3.62-8.25-3.62-13.75s1.2-10.61,3.62-14.65c2.41-4.06,6.27-6.08,11.56-6.08,5.98,0,10.19,2.38,12.64,7.12,1.54,3.03,2.31,6.95,2.31,11.77,0,5.33-1.07,10.19-3.2,14.53-2.14,4.36-6.1,6.53-11.85,6.53-5.24,0-9.06-1.83-11.47-5.49Zm-5.93-34.34c-4.41,5.14-6.6,12.06-6.6,20.74,0,8.1,2.08,14.55,6.27,19.35,4.17,4.8,9.81,7.22,16.92,7.22,8.52,0,14.8-2.72,18.86-8.15,4.05-5.43,6.08-12.32,6.08-20.65s-2.31-15.12-6.9-19.56c-4.6-4.44-10.23-6.67-16.88-6.67-7.43,0-13.34,2.57-17.74,7.71Z"/>
      <path class="cls-1" d="m1147.42,139.16h8.88v34.29c0,2.63.42,4.78,1.26,6.46,1.54,3.09,4.42,4.63,8.63,4.63,6.04,0,10.15-2.71,12.34-8.12,1.18-2.88,1.78-6.86,1.78-11.91v-25.35h8.68v51.64h-8.19l.1-7.62c-1.12,1.96-2.52,3.62-4.19,4.97-3.32,2.69-7.33,4.04-12.06,4.04-7.37,0-12.38-2.46-15.05-7.37-1.45-2.63-2.17-6.15-2.17-10.55v-35.11Z"/>
      <path class="cls-1" d="m1202.51,190.8v-51.64h8.25v7.33c2.44-3.03,5.03-5.2,7.76-6.51,2.73-1.31,5.77-1.98,9.11-1.98,7.33,0,12.28,2.55,14.85,7.68,1.42,2.78,2.12,6.78,2.12,12v33.12h-8.82v-32.55c0-3.14-.48-5.68-1.41-7.62-1.54-3.2-4.33-4.82-8.38-4.82-2.06,0-3.75.21-5.07.63-2.38.71-4.47,2.11-6.27,4.25-1.45,1.7-2.38,3.47-2.82,5.28-.44,1.81-.65,4.42-.65,7.79v27.05h-8.69Z"/>
      <path class="cls-1" d="m1277.32,137.65c5.83,0,10.55,1.43,14.21,4.25,3.64,2.84,5.84,7.7,6.57,14.61h-8.44c-.51-3.18-1.68-5.83-3.52-7.92-1.83-2.11-4.77-3.16-8.83-3.16-5.52,0-9.48,2.7-11.85,8.1-1.54,3.51-2.32,7.83-2.32,12.97s1.1,9.52,3.28,13.07c2.19,3.54,5.64,5.3,10.32,5.3,3.6,0,6.46-1.09,8.55-3.3,2.11-2.21,3.56-5.22,4.36-9.05h8.44c-.95,6.86-3.37,11.87-7.22,15.03-3.87,3.16-8.8,4.74-14.81,4.74-6.75,0-12.13-2.46-16.15-7.39-4.01-4.93-6.03-11.11-6.03-18.5,0-9.07,2.21-16.11,6.61-21.16,4.4-5.05,10.01-7.58,16.82-7.58Z"/>
      <path class="cls-1" d="m1306.78,190.8v-51.39h8.82v51.39h-8.82Zm0-60.99v-9.85h8.82v9.85h-8.82Z"/>
      <path class="cls-1" d="m1328.94,190.8v-70.84h8.69v70.84h-8.69Z"/>
      <path class="cls-1" d="m1387.06,179.71c-2.41-3.68-3.61-8.25-3.61-13.75s1.2-10.61,3.61-14.65c2.41-4.06,6.27-6.08,11.57-6.08,5.98,0,10.19,2.38,12.63,7.12,1.54,3.03,2.32,6.95,2.32,11.77,0,5.33-1.08,10.19-3.22,14.53-2.13,4.36-6.08,6.53-11.83,6.53-5.24,0-9.07-1.83-11.48-5.49Zm-5.93-34.34c-4.4,5.14-6.61,12.06-6.61,20.74,0,8.1,2.1,14.55,6.28,19.35,4.18,4.8,9.82,7.22,16.93,7.22,8.51,0,14.8-2.72,18.86-8.15,4.04-5.43,6.07-12.32,6.07-20.65s-2.29-15.12-6.9-19.56c-4.6-4.44-10.22-6.67-16.87-6.67-7.43,0-13.35,2.57-17.75,7.71Z"/>
      <path class="cls-1" d="m1435.11,131.29c.12-3.6.75-6.23,1.88-7.91,2.03-2.95,5.93-4.44,11.72-4.44.53,0,1.11.02,1.68.06.59.04,1.24.08,1.98.13v7.9c-.9-.06-1.55-.09-1.95-.11-.4-.02-.78-.02-1.13-.02-2.63,0-4.21.69-4.72,2.04-.51,1.37-.77,4.86-.77,10.46h8.58v6.84h-8.68v44.55h-8.58v-44.55h-7.18v-6.84h7.18v-8.11Z"/>
      <path class="cls-1" d="m1518.81,118.03c8.97,0,15.92,2.36,20.88,7.09,4.95,4.72,7.7,10.1,8.25,16.11h-9.35c-1.07-4.57-3.18-8.19-6.34-10.86-3.16-2.67-7.61-4-13.33-4-6.97,0-12.61,2.46-16.9,7.35-4.29,4.89-6.44,12.42-6.44,22.53,0,8.31,1.94,15.03,5.81,20.19,3.87,5.16,9.66,7.73,17.33,7.73,7.07,0,12.46-2.72,16.15-8.15,1.96-2.86,3.43-6.61,4.39-11.28h9.35c-.84,7.45-3.61,13.72-8.3,18.76-5.62,6.08-13.21,9.1-22.76,9.1-8.23,0-15.13-2.49-20.72-7.47-7.36-6.59-11.05-16.76-11.05-30.53,0-10.44,2.76-19.01,8.3-25.7,5.98-7.26,14.22-10.9,24.73-10.9Z"/>
      <path class="cls-1" d="m1569.76,169.83c1.57-.91,3.93-1.56,7.09-1.98l5.26-.69c1.61-.19,3.25-.51,4.91-.95,1.67-.46,3.04-1.01,4.11-1.7v6.99c0,5.33-2.42,9.18-7.24,11.53-2.86,1.43-5.82,2.13-8.88,2.13-2.49,0-4.67-.72-6.51-2.17-1.83-1.45-2.75-3.43-2.75-5.94,0-3.3,1.33-5.71,4.01-7.22Zm-8.58-3.71c-2.99,2.63-4.49,6.34-4.49,11.14,0,4.36,1.51,8,4.56,10.91,3.03,2.9,6.94,4.36,11.73,4.36,3.98,0,7.64-.86,10.94-2.55,3.31-1.71,5.86-3.71,7.62-6.04.3,2.06.79,3.66,1.5,4.78,1.35,2.11,3.52,3.18,6.51,3.18,1.22,0,2.18-.04,2.89-.15.71-.1,1.74-.32,3.09-.72v-6.4c-.54.1-1.06.17-1.54.21-.49.06-.91.08-1.3.08-1.18,0-1.96-.27-2.33-.82-.37-.55-.55-1.28-.55-2.17v-29.75c0-4.88-1.88-8.48-5.65-10.8-3.79-2.3-8.72-3.47-14.8-3.47-5.24,0-9.85,1.24-13.81,3.73-3.97,2.5-6.04,6.91-6.19,13.3h8.1c.32-2.67,1.01-4.69,2.08-6.04,1.89-2.44,5.11-3.66,9.64-3.66,3.92,0,6.93.67,9.04,2,2.1,1.33,3.16,3.49,3.16,6.44,0,1.45-.2,2.55-.58,3.31-.68,1.43-2.01,2.27-4,2.51l-13.84,1.73c-4.86.61-8.77,2.23-11.76,4.88Z"/>
      <path class="cls-1" d="m1614,190.8v-51.64h8.25v7.33c2.44-3.03,5.03-5.2,7.75-6.51,2.73-1.31,5.77-1.98,9.12-1.98,7.33,0,12.28,2.55,14.85,7.68,1.42,2.78,2.12,6.78,2.12,12v33.12h-8.82v-32.55c0-3.14-.47-5.68-1.4-7.62-1.54-3.2-4.34-4.82-8.39-4.82-2.06,0-3.74.21-5.06.63-2.38.71-4.48,2.11-6.27,4.25-1.45,1.7-2.39,3.47-2.82,5.28-.44,1.81-.66,4.42-.66,7.79v27.05h-8.68Z"/>
      <path class="cls-1" d="m1679.54,169.83c1.58-.91,3.94-1.56,7.09-1.98l5.26-.69c1.6-.19,3.25-.51,4.91-.95,1.68-.46,3.05-1.01,4.11-1.7v6.99c0,5.33-2.41,9.18-7.23,11.53-2.87,1.43-5.83,2.13-8.88,2.13-2.51,0-4.68-.72-6.51-2.17-1.83-1.45-2.74-3.43-2.74-5.94,0-3.3,1.33-5.71,4-7.22Zm-8.58-3.71c-2.99,2.63-4.49,6.34-4.49,11.14,0,4.36,1.52,8,4.55,10.91,3.05,2.9,6.95,4.36,11.75,4.36,3.98,0,7.62-.86,10.93-2.55,3.31-1.71,5.85-3.71,7.62-6.04.3,2.06.79,3.66,1.5,4.78,1.34,2.11,3.52,3.18,6.5,3.18,1.23,0,2.19-.04,2.89-.15.71-.1,1.73-.32,3.09-.72v-6.4c-.54.1-1.06.17-1.54.21-.48.06-.91.08-1.3.08-1.19,0-1.97-.27-2.34-.82-.36-.55-.55-1.28-.55-2.17v-29.75c0-4.88-1.89-8.48-5.64-10.8-3.79-2.3-8.72-3.47-14.8-3.47-5.24,0-9.85,1.24-13.82,3.73-3.97,2.5-6.03,6.91-6.2,13.3h8.11c.32-2.67,1.02-4.69,2.08-6.04,1.9-2.44,5.12-3.66,9.65-3.66,3.91,0,6.93.67,9.03,2,2.11,1.33,3.16,3.49,3.16,6.44,0,1.45-.19,2.55-.57,3.31-.69,1.43-2.02,2.27-4.01,2.51l-13.84,1.73c-4.86.61-8.77,2.23-11.76,4.88Z"/>
      <path class="cls-1" d="m1733.36,150.82c2.72-3.33,6.26-5.01,10.63-5.01,3.92,0,7.22,1.56,9.89,4.7,2.67,3.12,4,7.96,4,14.5s-1.3,11.41-3.89,14.86c-2.58,3.47-5.89,5.2-9.91,5.2-5.17,0-8.93-1.87-11.28-5.6-2.35-3.73-3.52-8.36-3.52-13.89,0-6.5,1.35-11.41,4.08-14.76Zm-7.48-4.3c-3.84,5.51-5.76,12.02-5.76,19.54,0,8.04,2.11,14.48,6.32,19.32,4.21,4.84,9.18,7.26,14.94,7.26,3.57,0,6.73-.7,9.5-2.11,2.76-1.43,5.16-3.71,7.18-6.9v7.18h7.81v-71.07h-8.34v26.08c-1.96-2.4-3.71-4.1-5.25-5.07-2.68-1.66-5.98-2.49-9.93-2.49-7.13,0-12.63,2.74-16.47,8.27Z"/>
      <path class="cls-1" d="m1789.34,169.83c1.57-.91,3.93-1.56,7.09-1.98l5.26-.69c1.6-.19,3.24-.51,4.91-.95,1.68-.46,3.03-1.01,4.1-1.7v6.99c0,5.33-2.41,9.18-7.24,11.53-2.86,1.43-5.81,2.13-8.87,2.13-2.51,0-4.68-.72-6.51-2.17-1.83-1.45-2.74-3.43-2.74-5.94,0-3.3,1.32-5.71,4-7.22Zm-8.59-3.71c-2.99,2.63-4.48,6.34-4.48,11.14,0,4.36,1.51,8,4.55,10.91,3.04,2.9,6.95,4.36,11.73,4.36,3.99,0,7.64-.86,10.95-2.55,3.31-1.71,5.85-3.71,7.62-6.04.28,2.06.78,3.66,1.49,4.78,1.35,2.11,3.52,3.18,6.51,3.18,1.22,0,2.19-.04,2.89-.15.71-.1,1.73-.32,3.09-.72v-6.4c-.55.1-1.07.17-1.54.21-.49.06-.91.08-1.3.08-1.19,0-1.97-.27-2.33-.82-.38-.55-.55-1.28-.55-2.17v-29.75c0-4.88-1.89-8.48-5.65-10.8-3.8-2.3-8.73-3.47-14.8-3.47-5.25,0-9.85,1.24-13.82,3.73-3.96,2.5-6.04,6.91-6.19,13.3h8.1c.32-2.67,1.02-4.69,2.08-6.04,1.89-2.44,5.11-3.66,9.64-3.66,3.92,0,6.93.67,9.05,2,2.1,1.33,3.16,3.49,3.16,6.44,0,1.45-.2,2.55-.59,3.31-.67,1.43-2,2.27-4,2.51l-13.83,1.73c-4.86.61-8.78,2.23-11.77,4.88Z"/>
    </g>
    <g>
      <path class="cls-1" d="m2197.72,0c8.97,0,15.93,2.36,20.88,7.09,4.95,4.72,7.7,10.1,8.25,16.11h-9.36c-1.06-4.57-3.17-8.19-6.34-10.86-3.17-2.67-7.61-4-13.33-4-6.98,0-12.61,2.46-16.9,7.35-4.29,4.89-6.43,12.42-6.43,22.53,0,8.31,1.94,15.03,5.81,20.19,3.87,5.16,9.65,7.73,17.33,7.73,7.07,0,12.45-2.72,16.15-8.15,1.96-2.86,3.42-6.61,4.39-11.28h9.35c-.83,7.45-3.6,13.72-8.29,18.76-5.63,6.08-13.21,9.1-22.76,9.1-8.23,0-15.14-2.49-20.73-7.47-7.36-6.59-11.04-16.76-11.04-30.53,0-10.44,2.77-19.01,8.3-25.7,5.98-7.26,14.22-10.9,24.73-10.9Z"/>
      <path class="cls-1" d="m2247.02,61.68c-2.41-3.68-3.61-8.25-3.61-13.75s1.2-10.61,3.61-14.65c2.41-4.06,6.27-6.08,11.57-6.08,5.98,0,10.19,2.38,12.63,7.12,1.54,3.03,2.31,6.95,2.31,11.77,0,5.33-1.07,10.19-3.21,14.53-2.14,4.36-6.08,6.53-11.83,6.53-5.24,0-9.07-1.83-11.48-5.49Zm-5.93-34.34c-4.41,5.14-6.61,12.06-6.61,20.74,0,8.1,2.09,14.55,6.27,19.35,4.18,4.8,9.82,7.22,16.93,7.22,8.51,0,14.8-2.72,18.85-8.15,4.05-5.43,6.08-12.32,6.08-20.65s-2.3-15.12-6.9-19.56c-4.6-4.44-10.22-6.67-16.87-6.67-7.43,0-13.34,2.57-17.74,7.71Z"/>
      <path class="cls-1" d="m2292.9,72.76V21.12h8.24v7.33c2.44-3.03,5.03-5.2,7.76-6.51s5.77-1.98,9.11-1.98c7.33,0,12.28,2.55,14.85,7.68,1.41,2.78,2.12,6.78,2.12,12v33.12h-8.82v-32.55c0-3.14-.47-5.68-1.4-7.62-1.54-3.2-4.34-4.82-8.39-4.82-2.06,0-3.75.21-5.06.63-2.38.71-4.47,2.11-6.27,4.25-1.44,1.7-2.39,3.47-2.82,5.28-.43,1.81-.65,4.42-.65,7.79v27.05h-8.68Z"/>
      <path class="cls-1" d="m2344.61,56.55h8.34c.25,2.9.98,5.12,2.17,6.67,2.19,2.78,5.98,4.19,11.38,4.19,3.21,0,6.04-.7,8.49-2.09,2.44-1.41,3.66-3.56,3.66-6.5,0-2.21-.98-3.91-2.94-5.07-1.26-.7-3.73-1.52-7.43-2.46l-6.9-1.73c-4.4-1.09-7.65-2.3-9.74-3.66-3.73-2.34-5.59-5.6-5.59-9.73,0-4.9,1.76-8.84,5.28-11.87,3.52-3.03,8.25-4.53,14.2-4.53,7.78,0,13.39,2.29,16.83,6.84,2.15,2.9,3.2,6.02,3.13,9.35h-8.2c-.16-1.94-.85-3.73-2.08-5.35-1.99-2.27-5.45-3.41-10.37-3.41-3.28,0-5.76.63-7.45,1.87-1.69,1.26-2.53,2.91-2.53,4.97,0,2.25,1.11,4.06,3.33,5.41,1.29.8,3.18,1.5,5.69,2.11l5.74,1.39c6.23,1.52,10.41,2.99,12.53,4.4,3.38,2.21,5.07,5.7,5.07,10.46s-1.75,8.57-5.23,11.91c-3.49,3.35-8.8,5.03-15.94,5.03-7.68,0-13.12-1.75-16.32-5.24-3.2-3.49-4.91-7.81-5.13-12.95Z"/>
      <path class="cls-1" d="m2408.11,31.85c2.69-2.88,6.04-4.32,10.03-4.32,5.56,0,9.53,2.09,11.91,6.29,1.29,2.25,2.1,5.24,2.46,9.01h-28.69c.16-4.44,1.59-8.09,4.3-10.97Zm-7.09-4.11c-4.5,5.16-6.75,11.91-6.75,20.19s2.23,14.97,6.7,19.66c4.47,4.67,9.91,7.01,16.34,7.01,2.64,0,5-.27,7.09-.76,3.89-.91,7.15-2.65,9.79-5.22,1.58-1.47,3-3.37,4.27-5.72,1.27-2.32,2.02-4.44,2.24-6.34h-8.53c-.64,2.29-1.73,4.3-3.28,6.04-2.7,2.99-6.32,4.48-10.85,4.48-4.85,0-8.44-1.58-10.75-4.74-2.31-3.16-3.55-7.37-3.71-12.61h37.85c0-5.22-.26-9.01-.77-11.39-.58-3.47-1.73-6.5-3.47-9.11-1.8-2.72-4.42-4.95-7.86-6.67-3.44-1.73-6.99-2.59-10.65-2.59-7.27,0-13.15,2.59-17.65,7.77Z"/>
      <path class="cls-1" d="m2452.06,72.76V21.37h8.82v51.39h-8.82Zm0-60.99V1.92h8.82v9.85h-8.82Z"/>
      <path class="cls-1" d="m2474.22,72.76V1.92h8.68v70.84h-8.68Z"/>
      <path class="cls-1" d="m2532.9,32.78c2.71-3.33,6.26-5.01,10.63-5.01,3.91,0,7.21,1.56,9.88,4.7,2.68,3.12,4.01,7.96,4.01,14.5s-1.3,11.41-3.89,14.86c-2.58,3.47-5.9,5.2-9.9,5.2-5.18,0-8.94-1.87-11.28-5.6-2.35-3.73-3.52-8.36-3.52-13.89,0-6.5,1.36-11.41,4.07-14.76Zm-7.47-4.3c-3.84,5.51-5.76,12.02-5.76,19.54,0,8.04,2.1,14.48,6.31,19.32,4.21,4.84,9.2,7.26,14.95,7.26,3.57,0,6.74-.7,9.5-2.11,2.76-1.43,5.16-3.71,7.18-6.9v7.18h7.81V1.69h-8.33v26.08c-1.97-2.4-3.72-4.1-5.27-5.07-2.66-1.66-5.97-2.49-9.93-2.49-7.13,0-12.62,2.74-16.46,8.27Z"/>
      <path class="cls-1" d="m2589.16,31.85c2.7-2.88,6.05-4.32,10.04-4.32,5.55,0,9.52,2.09,11.91,6.29,1.29,2.25,2.1,5.24,2.46,9.01h-28.69c.15-4.44,1.59-8.09,4.29-10.97Zm-7.08-4.11c-4.5,5.16-6.75,11.91-6.75,20.19s2.23,14.97,6.7,19.66c4.47,4.67,9.91,7.01,16.35,7.01,2.63,0,4.99-.27,7.08-.76,3.9-.91,7.15-2.65,9.79-5.22,1.58-1.47,3-3.37,4.27-5.72,1.27-2.32,2.02-4.44,2.24-6.34h-8.53c-.64,2.29-1.73,4.3-3.28,6.04-2.69,2.99-6.31,4.48-10.84,4.48-4.87,0-8.44-1.58-10.75-4.74-2.32-3.16-3.55-7.37-3.72-12.61h37.86c0-5.22-.26-9.01-.77-11.39-.58-3.47-1.74-6.5-3.48-9.11-1.8-2.72-4.42-4.95-7.86-6.67-3.44-1.73-6.99-2.59-10.66-2.59-7.27,0-13.15,2.59-17.64,7.77Z"/>
      <path class="cls-1" d="m2660.79,72.76V21.12h8.24v8.92c.68-1.73,2.33-3.85,4.97-6.34,2.63-2.48,5.68-3.73,9.11-3.73.16,0,.44.02.82.06.39.02,1.05.1,1.98.19v9.16c-.52-.09-1-.17-1.43-.19-.44-.04-.9-.06-1.42-.06-4.38,0-7.73,1.41-10.08,4.21-2.35,2.82-3.52,6.06-3.52,9.73v29.7h-8.68Z"/>
      <path class="cls-1" d="m2704.36,31.85c2.69-2.88,6.04-4.32,10.03-4.32,5.55,0,9.52,2.09,11.91,6.29,1.29,2.25,2.1,5.24,2.46,9.01h-28.69c.16-4.44,1.59-8.09,4.3-10.97Zm-7.1-4.11c-4.5,5.16-6.74,11.91-6.74,20.19s2.23,14.97,6.7,19.66c4.47,4.67,9.91,7.01,16.34,7.01,2.64,0,5-.27,7.1-.76,3.89-.91,7.15-2.65,9.79-5.22,1.57-1.47,2.99-3.37,4.27-5.72,1.27-2.32,2.01-4.44,2.24-6.34h-8.53c-.64,2.29-1.73,4.3-3.28,6.04-2.7,2.99-6.31,4.48-10.86,4.48-4.85,0-8.43-1.58-10.75-4.74-2.3-3.16-3.55-7.37-3.71-12.61h37.85c0-5.22-.26-9.01-.77-11.39-.58-3.47-1.73-6.5-3.48-9.11-1.79-2.72-4.41-4.95-7.86-6.67-3.44-1.73-6.99-2.59-10.65-2.59-7.27,0-13.15,2.59-17.66,7.77Z"/>
      <path class="cls-1" d="m2768.22,19.62c5.82,0,10.55,1.43,14.2,4.25,3.65,2.84,5.84,7.69,6.58,14.61h-8.44c-.51-3.18-1.69-5.83-3.52-7.92-1.83-2.11-4.76-3.16-8.82-3.16-5.53,0-9.48,2.7-11.87,8.1-1.54,3.51-2.3,7.83-2.3,12.97s1.09,9.52,3.28,13.07c2.19,3.54,5.62,5.3,10.32,5.3,3.61,0,6.46-1.09,8.56-3.3,2.1-2.21,3.55-5.22,4.36-9.05h8.44c-.96,6.86-3.37,11.87-7.24,15.03-3.85,3.16-8.79,4.74-14.8,4.74-6.75,0-12.13-2.46-16.14-7.39-4.03-4.93-6.03-11.11-6.03-18.5,0-9.07,2.2-16.11,6.6-21.16,4.41-5.05,10.01-7.58,16.83-7.58Z"/>
      <path class="cls-1" d="m2797.68,72.76V1.69h8.69v26.42c2.05-2.61,3.91-4.44,5.53-5.5,2.8-1.83,6.3-2.74,10.47-2.74,7.49,0,12.57,2.63,15.24,7.87,1.45,2.86,2.17,6.82,2.17,11.91v33.12h-8.92v-32.55c0-3.79-.48-6.57-1.44-8.34-1.58-2.82-4.54-4.23-8.88-4.23-3.6,0-6.87,1.24-9.79,3.7-2.92,2.48-4.38,7.16-4.38,14.04v27.39h-8.69Z"/>
      <path class="cls-1" d="m2863.52,31.85c2.71-2.88,6.04-4.32,10.03-4.32,5.56,0,9.53,2.09,11.91,6.29,1.3,2.25,2.11,5.24,2.47,9.01h-28.69c.16-4.44,1.59-8.09,4.29-10.97Zm-7.09-4.11c-4.51,5.16-6.75,11.91-6.75,20.19s2.24,14.97,6.71,19.66c4.47,4.67,9.91,7.01,16.34,7.01,2.64,0,5-.27,7.09-.76,3.89-.91,7.15-2.65,9.79-5.22,1.57-1.47,2.99-3.37,4.27-5.72,1.27-2.32,2.02-4.44,2.24-6.34h-8.53c-.65,2.29-1.73,4.3-3.28,6.04-2.71,2.99-6.31,4.48-10.85,4.48-4.86,0-8.44-1.58-10.75-4.74-2.31-3.16-3.55-7.37-3.71-12.61h37.85c0-5.22-.26-9.01-.76-11.39-.59-3.47-1.74-6.5-3.48-9.11-1.8-2.72-4.43-4.95-7.86-6.67-3.44-1.73-6.99-2.59-10.66-2.59-7.27,0-13.14,2.59-17.65,7.77Z"/>
      <path class="cls-1" d="m2907.71,72.76V21.12h8.25v8.92c.67-1.73,2.32-3.85,4.96-6.34,2.64-2.48,5.67-3.73,9.11-3.73.15,0,.44.02.82.06.39.02,1.04.1,1.97.19v9.16c-.51-.09-.98-.17-1.42-.19-.44-.04-.91-.06-1.42-.06-4.37,0-7.73,1.41-10.09,4.21-2.34,2.82-3.51,6.06-3.51,9.73v29.7h-8.68Z"/>
      <path class="cls-1" d="m2960.25,19.62c5.82,0,10.54,1.43,14.19,4.25,3.66,2.84,5.85,7.69,6.58,14.61h-8.43c-.51-3.18-1.7-5.83-3.52-7.92-1.83-2.11-4.78-3.16-8.82-3.16-5.53,0-9.49,2.7-11.87,8.1-1.54,3.51-2.31,7.83-2.31,12.97s1.1,9.52,3.29,13.07c2.18,3.54,5.62,5.3,10.3,5.3,3.61,0,6.46-1.09,8.56-3.3,2.11-2.21,3.56-5.22,4.37-9.05h8.43c-.96,6.86-3.37,11.87-7.23,15.03-3.86,3.16-8.79,4.74-14.8,4.74-6.75,0-12.14-2.46-16.15-7.39-4.02-4.93-6.03-11.11-6.03-18.5,0-9.07,2.2-16.11,6.6-21.16,4.41-5.05,10.02-7.58,16.84-7.58Z"/>
      <path class="cls-1" d="m2989.69,72.76V1.69h8.69v26.42c2.06-2.61,3.91-4.44,5.54-5.5,2.8-1.83,6.29-2.74,10.46-2.74,7.49,0,12.57,2.63,15.24,7.87,1.45,2.86,2.17,6.82,2.17,11.91v33.12h-8.91v-32.55c0-3.79-.49-6.57-1.45-8.34-1.58-2.82-4.53-4.23-8.88-4.23-3.6,0-6.87,1.24-9.79,3.7-2.92,2.48-4.38,7.16-4.38,14.04v27.39h-8.69Z"/>
      <path class="cls-1" d="m3055.55,31.85c2.69-2.88,6.04-4.32,10.02-4.32,5.56,0,9.53,2.09,11.92,6.29,1.29,2.25,2.1,5.24,2.46,9.01h-28.69c.15-4.44,1.59-8.09,4.3-10.97Zm-7.09-4.11c-4.5,5.16-6.76,11.91-6.76,20.19s2.24,14.97,6.71,19.66c4.47,4.67,9.92,7.01,16.34,7.01,2.64,0,5-.27,7.1-.76,3.89-.91,7.15-2.65,9.79-5.22,1.57-1.47,2.99-3.37,4.27-5.72,1.27-2.32,2.01-4.44,2.24-6.34h-8.53c-.65,2.29-1.74,4.3-3.29,6.04-2.7,2.99-6.31,4.48-10.85,4.48-4.85,0-8.44-1.58-10.74-4.74-2.32-3.16-3.56-7.37-3.72-12.61h37.86c0-5.22-.27-9.01-.78-11.39-.57-3.47-1.72-6.5-3.47-9.11-1.8-2.72-4.42-4.95-7.86-6.67-3.44-1.73-6.99-2.59-10.66-2.59-7.26,0-13.15,2.59-17.64,7.77Z"/>
      <path class="cls-1" d="m3096.31,56.55h8.33c.26,2.9.98,5.12,2.18,6.67,2.18,2.78,5.97,4.19,11.37,4.19,3.22,0,6.04-.7,8.49-2.09,2.45-1.41,3.67-3.56,3.67-6.5,0-2.21-.98-3.91-2.94-5.07-1.25-.7-3.72-1.52-7.42-2.46l-6.9-1.73c-4.41-1.09-7.66-2.3-9.74-3.66-3.72-2.34-5.59-5.6-5.59-9.73,0-4.9,1.76-8.84,5.28-11.87,3.51-3.03,8.25-4.53,14.2-4.53,7.77,0,13.38,2.29,16.83,6.84,2.15,2.9,3.2,6.02,3.13,9.35h-8.2c-.15-1.94-.86-3.73-2.08-5.35-1.99-2.27-5.45-3.41-10.36-3.41-3.28,0-5.76.63-7.45,1.87-1.69,1.26-2.53,2.91-2.53,4.97,0,2.25,1.11,4.06,3.33,5.41,1.28.8,3.18,1.5,5.69,2.11l5.74,1.39c6.23,1.52,10.41,2.99,12.52,4.4,3.38,2.21,5.07,5.7,5.07,10.46s-1.74,8.57-5.23,11.91c-3.5,3.35-8.8,5.03-15.93,5.03-7.69,0-13.12-1.75-16.33-5.24-3.2-3.49-4.9-7.81-5.13-12.95Z"/>
      <path class="cls-1" d="m3187.25,31.85c2.69-2.88,6.04-4.32,10.02-4.32,5.56,0,9.53,2.09,11.92,6.29,1.29,2.25,2.1,5.24,2.46,9.01h-28.69c.16-4.44,1.59-8.09,4.3-10.97Zm-7.1-4.11c-4.5,5.16-6.74,11.91-6.74,20.19s2.23,14.97,6.7,19.66c4.47,4.67,9.91,7.01,16.34,7.01,2.64,0,5.01-.27,7.1-.76,3.89-.91,7.15-2.65,9.78-5.22,1.58-1.47,3-3.37,4.27-5.72,1.28-2.32,2.02-4.44,2.25-6.34h-8.53c-.65,2.29-1.74,4.3-3.29,6.04-2.7,2.99-6.31,4.48-10.85,4.48-4.85,0-8.44-1.58-10.74-4.74-2.32-3.16-3.56-7.37-3.71-12.61h37.85c0-5.22-.26-9.01-.77-11.39-.58-3.47-1.73-6.5-3.48-9.11-1.79-2.72-4.42-4.95-7.86-6.67-3.44-1.73-6.99-2.59-10.66-2.59-7.26,0-13.14,2.59-17.65,7.77Z"/>
      <path class="cls-1" d="m3231.19,72.76V21.12h8.25v7.33c2.44-3.03,5.03-5.2,7.76-6.51,2.73-1.31,5.76-1.98,9.12-1.98,7.32,0,12.28,2.55,14.85,7.68,1.42,2.78,2.12,6.78,2.12,12v33.12h-8.83v-32.55c0-3.14-.47-5.68-1.4-7.62-1.54-3.2-4.33-4.82-8.39-4.82-2.05,0-3.73.21-5.06.63-2.38.71-4.47,2.11-6.27,4.25-1.45,1.7-2.38,3.47-2.82,5.28-.44,1.81-.65,4.42-.65,7.79v27.05h-8.69Z"/>
      <path class="cls-1" d="m2163.53,173.59h8.34c.26,2.9.98,5.12,2.17,6.67,2.19,2.78,5.98,4.19,11.38,4.19,3.21,0,6.04-.7,8.49-2.09,2.44-1.41,3.67-3.56,3.67-6.5,0-2.21-.98-3.91-2.94-5.07-1.25-.7-3.73-1.52-7.42-2.46l-6.9-1.73c-4.41-1.09-7.65-2.3-9.74-3.66-3.73-2.34-5.6-5.6-5.6-9.73,0-4.9,1.76-8.84,5.28-11.87,3.52-3.03,8.25-4.53,14.2-4.53,7.78,0,13.39,2.29,16.82,6.84,2.15,2.9,3.2,6.02,3.14,9.35h-8.2c-.16-1.94-.85-3.73-2.07-5.35-2-2.27-5.45-3.41-10.37-3.41-3.28,0-5.76.63-7.45,1.87-1.69,1.26-2.53,2.91-2.53,4.97,0,2.25,1.11,4.06,3.33,5.41,1.29.8,3.18,1.5,5.69,2.11l5.74,1.39c6.24,1.52,10.41,2.99,12.54,4.4,3.38,2.21,5.06,5.7,5.06,10.46s-1.75,8.57-5.23,11.91c-3.49,3.35-8.8,5.03-15.93,5.03-7.68,0-13.13-1.75-16.32-5.24-3.2-3.49-4.91-7.81-5.14-12.95Z"/>
      <path class="cls-1" d="m2236,136.65c5.82,0,10.55,1.43,14.2,4.25,3.65,2.84,5.84,7.7,6.58,14.61h-8.44c-.51-3.18-1.69-5.83-3.52-7.92-1.83-2.11-4.77-3.16-8.82-3.16-5.53,0-9.48,2.7-11.86,8.1-1.54,3.51-2.31,7.83-2.31,12.97s1.09,9.52,3.28,13.07c2.19,3.54,5.62,5.3,10.32,5.3,3.6,0,6.45-1.09,8.56-3.3,2.1-2.21,3.56-5.22,4.36-9.05h8.44c-.96,6.86-3.38,11.87-7.23,15.03-3.85,3.16-8.79,4.74-14.8,4.74-6.75,0-12.13-2.46-16.15-7.39-4.02-4.93-6.02-11.11-6.02-18.5,0-9.07,2.2-16.11,6.6-21.16,4.4-5.05,10.01-7.58,16.82-7.58Z"/>
      <path class="cls-1" d="m2265.46,189.8v-51.39h8.82v51.39h-8.82Zm0-60.99v-9.85h8.82v9.85h-8.82Z"/>
      <path class="cls-1" d="m2297.74,149.97c2.7-2.88,6.04-4.3,10.03-4.3,5.56,0,9.53,2.08,11.91,6.27,1.29,2.25,2.1,5.26,2.46,9.01h-28.69c.16-4.44,1.59-8.1,4.29-10.97Zm-7.09-4.11c-4.5,5.18-6.75,11.91-6.75,20.19s2.23,14.97,6.7,19.66c4.47,4.67,9.92,7.01,16.35,7.01,2.63,0,5-.25,7.09-.76,3.89-.91,7.15-2.65,9.79-5.22,1.58-1.47,3-3.37,4.27-5.71,1.27-2.32,2.01-4.44,2.24-6.32h-8.54c-.64,2.27-1.73,4.29-3.28,6.02-2.7,2.99-6.32,4.48-10.85,4.48-4.86,0-8.44-1.58-10.75-4.74-2.31-3.16-3.55-7.37-3.71-12.61h37.85c0-5.2-.26-8.99-.77-11.37-.58-3.49-1.73-6.51-3.47-9.12-1.8-2.72-4.42-4.95-7.86-6.67-3.44-1.73-6.99-2.59-10.66-2.59-7.27,0-13.15,2.59-17.64,7.77Z"/>
      <path class="cls-1" d="m2342.27,189.8v-51.64h8.24v7.33c2.44-3.03,5.03-5.2,7.76-6.51s5.77-1.98,9.12-1.98c7.33,0,12.28,2.55,14.85,7.68,1.41,2.78,2.12,6.78,2.12,12v33.12h-8.82v-32.55c0-3.14-.47-5.68-1.4-7.62-1.54-3.2-4.34-4.82-8.39-4.82-2.06,0-3.75.21-5.06.63-2.38.71-4.47,2.11-6.27,4.25-1.44,1.7-2.39,3.47-2.82,5.28-.43,1.81-.65,4.42-.65,7.79v27.05h-8.68Z"/>
      <path class="cls-1" d="m2417.08,136.65c5.81,0,10.55,1.43,14.2,4.25,3.65,2.84,5.84,7.7,6.58,14.61h-8.44c-.51-3.18-1.69-5.83-3.52-7.92-1.83-2.11-4.78-3.16-8.82-3.16-5.53,0-9.49,2.7-11.86,8.1-1.54,3.51-2.31,7.83-2.31,12.97s1.09,9.52,3.28,13.07c2.18,3.54,5.62,5.3,10.31,5.3,3.6,0,6.45-1.09,8.56-3.3,2.11-2.21,3.56-5.22,4.37-9.05h8.44c-.97,6.86-3.38,11.87-7.23,15.03-3.86,3.16-8.79,4.74-14.8,4.74-6.75,0-12.14-2.46-16.15-7.39-4.02-4.93-6.03-11.11-6.03-18.5,0-9.07,2.2-16.11,6.6-21.16,4.41-5.05,10.02-7.58,16.83-7.58Z"/>
      <path class="cls-1" d="m2457.49,148.88c2.69-2.88,6.04-4.32,10.03-4.32,5.56,0,9.53,2.09,11.91,6.29,1.29,2.25,2.1,5.24,2.46,9.01h-28.69c.16-4.44,1.59-8.09,4.3-10.97Zm-7.09-4.11c-4.5,5.16-6.75,11.91-6.75,20.19s2.23,14.97,6.7,19.66c4.47,4.67,9.91,7.01,16.34,7.01,2.64,0,5-.27,7.09-.76,3.89-.91,7.15-2.65,9.79-5.22,1.58-1.47,3-3.37,4.27-5.72,1.27-2.32,2.02-4.44,2.24-6.34h-8.53c-.64,2.29-1.73,4.31-3.28,6.04-2.7,2.99-6.32,4.48-10.85,4.48-4.85,0-8.44-1.58-10.75-4.74-2.31-3.16-3.55-7.37-3.71-12.61h37.85c0-5.22-.26-9.01-.77-11.39-.58-3.47-1.73-6.5-3.47-9.11-1.8-2.72-4.42-4.95-7.86-6.67-3.44-1.73-6.99-2.59-10.65-2.59-7.27,0-13.15,2.59-17.65,7.77Z"/>
      <path class="cls-1" d="m2498.25,173.59h8.34c.26,2.9.98,5.12,2.17,6.67,2.19,2.78,5.98,4.19,11.38,4.19,3.21,0,6.04-.7,8.49-2.09,2.44-1.41,3.66-3.56,3.66-6.5,0-2.21-.98-3.91-2.94-5.07-1.25-.7-3.73-1.52-7.42-2.46l-6.9-1.73c-4.41-1.09-7.65-2.3-9.74-3.66-3.73-2.34-5.59-5.6-5.59-9.73,0-4.9,1.76-8.84,5.28-11.87,3.52-3.03,8.25-4.53,14.2-4.53,7.78,0,13.39,2.29,16.83,6.84,2.15,2.9,3.19,6.02,3.13,9.35h-8.2c-.16-1.94-.85-3.73-2.07-5.35-2-2.27-5.45-3.41-10.37-3.41-3.28,0-5.76.63-7.45,1.87-1.69,1.26-2.53,2.91-2.53,4.97,0,2.25,1.11,4.06,3.32,5.41,1.29.8,3.19,1.5,5.69,2.11l5.74,1.39c6.23,1.52,10.42,2.99,12.54,4.4,3.37,2.21,5.06,5.7,5.06,10.46s-1.75,8.57-5.23,11.91c-3.49,3.35-8.8,5.03-15.93,5.03-7.69,0-13.12-1.75-16.32-5.24-3.2-3.49-4.91-7.81-5.14-12.95Z"/>
      <path class="cls-1" d="m2578.25,189.8v-71.07h8.68v26.42c2.06-2.61,3.9-4.44,5.55-5.5,2.79-1.83,6.28-2.74,10.46-2.74,7.49,0,12.56,2.63,15.24,7.87,1.45,2.86,2.16,6.82,2.16,11.91v33.12h-8.91v-32.55c0-3.79-.49-6.57-1.45-8.34-1.58-2.82-4.53-4.23-8.87-4.23-3.61,0-6.87,1.24-9.79,3.7-2.92,2.48-4.39,7.16-4.39,14.04v27.39h-8.68Z"/>
      <path class="cls-1" d="m2632.94,138.16h8.88v34.29c0,2.63.41,4.78,1.26,6.46,1.53,3.09,4.41,4.63,8.62,4.63,6.05,0,10.16-2.71,12.35-8.12,1.18-2.88,1.78-6.86,1.78-11.91v-25.35h8.68v51.64h-8.2l.11-7.62c-1.13,1.96-2.52,3.62-4.2,4.97-3.31,2.69-7.33,4.04-12.06,4.04-7.35,0-12.37-2.46-15.04-7.37-1.45-2.63-2.17-6.15-2.17-10.55v-35.11Z"/>
      <path class="cls-1" d="m2688.03,189.8v-51.64h8.58v7.33c2.06-2.55,3.92-4.4,5.6-5.54,2.86-1.96,6.1-2.95,9.73-2.95,4.11,0,7.43,1.01,9.93,3.05,1.42,1.14,2.69,2.86,3.86,5.1,1.92-2.76,4.19-4.82,6.8-6.15,2.6-1.33,5.52-2,8.77-2,6.94,0,11.67,2.51,14.17,7.52,1.35,2.7,2.03,6.32,2.03,10.9v34.38h-9.01v-35.87c0-3.45-.87-5.81-2.59-7.1-1.71-1.28-3.81-1.92-6.29-1.92-3.41,0-6.33,1.14-8.8,3.43-2.46,2.29-3.69,6.1-3.69,11.43v30.04h-8.83v-33.72c0-3.49-.41-6.06-1.25-7.66-1.31-2.42-3.78-3.62-7.38-3.62-3.28,0-6.26,1.28-8.94,3.81-2.69,2.53-4.02,7.14-4.02,13.79v27.39h-8.69Z"/>
      <path class="cls-1" d="m2780.92,168.83c1.58-.91,3.94-1.56,7.09-1.98l5.26-.69c1.6-.19,3.25-.51,4.92-.95,1.67-.46,3.04-1.01,4.09-1.7v6.99c0,5.33-2.41,9.18-7.22,11.53-2.87,1.43-5.83,2.13-8.88,2.13-2.51,0-4.68-.72-6.51-2.17-1.83-1.45-2.74-3.43-2.74-5.94,0-3.3,1.33-5.71,4-7.22Zm-8.58-3.71c-2.99,2.63-4.49,6.34-4.49,11.14,0,4.36,1.52,8,4.55,10.91,3.04,2.9,6.95,4.36,11.74,4.36,3.99,0,7.63-.86,10.95-2.55,3.3-1.71,5.85-3.71,7.61-6.04.29,2.06.79,3.66,1.5,4.78,1.35,2.11,3.52,3.18,6.51,3.18,1.23,0,2.19-.04,2.89-.15.71-.1,1.73-.32,3.09-.72v-6.4c-.54.1-1.06.17-1.54.21-.48.06-.91.08-1.31.08-1.18,0-1.96-.27-2.33-.82-.37-.55-.55-1.28-.55-2.17v-29.75c0-4.88-1.88-8.48-5.65-10.8-3.79-2.3-8.71-3.47-14.8-3.47-5.24,0-9.84,1.24-13.81,3.73-3.97,2.5-6.03,6.91-6.2,13.3h8.11c.32-2.67,1.02-4.69,2.08-6.04,1.89-2.44,5.11-3.66,9.64-3.66,3.92,0,6.93.67,9.05,2,2.1,1.33,3.15,3.49,3.15,6.44,0,1.45-.19,2.55-.58,3.31-.68,1.43-2.01,2.27-4,2.51l-13.84,1.73c-4.85.61-8.77,2.23-11.76,4.88Z"/>
      <path class="cls-1" d="m2825.16,189.8v-51.39h8.83v51.39h-8.83Zm0-60.99v-9.85h8.83v9.85h-8.83Z"/>
      <path class="cls-1" d="m2847.08,189.8v-51.64h8.25v7.33c2.44-3.03,5.03-5.2,7.76-6.51,2.72-1.31,5.77-1.98,9.11-1.98,7.33,0,12.28,2.55,14.85,7.68,1.42,2.78,2.13,6.78,2.13,12v33.12h-8.83v-32.55c0-3.14-.47-5.68-1.4-7.62-1.54-3.2-4.34-4.82-8.39-4.82-2.06,0-3.74.21-5.07.63-2.37.71-4.47,2.11-6.26,4.25-1.46,1.7-2.39,3.47-2.82,5.28-.44,1.81-.66,4.42-.66,7.79v27.05h-8.68Z"/>
      <path class="cls-1" d="m2912.92,148.88c2.7-2.88,6.04-4.32,10.03-4.32,5.56,0,9.52,2.09,11.91,6.29,1.29,2.25,2.1,5.24,2.46,9.01h-28.69c.16-4.44,1.59-8.09,4.3-10.97Zm-7.1-4.11c-4.5,5.16-6.74,11.91-6.74,20.19s2.23,14.97,6.71,19.66c4.46,4.67,9.9,7.01,16.34,7.01,2.63,0,5-.27,7.09-.76,3.89-.91,7.14-2.65,9.79-5.22,1.56-1.47,2.99-3.37,4.27-5.72,1.26-2.32,2.01-4.44,2.24-6.34h-8.53c-.65,2.29-1.74,4.31-3.29,6.04-2.69,2.99-6.31,4.48-10.84,4.48-4.86,0-8.44-1.58-10.75-4.74-2.31-3.16-3.55-7.37-3.72-12.61h37.86c0-5.22-.26-9.01-.77-11.39-.58-3.47-1.74-6.5-3.47-9.11-1.81-2.72-4.43-4.95-7.87-6.67-3.44-1.73-6.99-2.59-10.65-2.59-7.28,0-13.15,2.59-17.66,7.77Z"/>
      <path class="cls-1" d="m2953.68,173.59h8.34c.26,2.9.98,5.12,2.17,6.67,2.18,2.78,5.97,4.19,11.38,4.19,3.21,0,6.04-.7,8.49-2.09,2.44-1.41,3.66-3.56,3.66-6.5,0-2.21-.98-3.91-2.94-5.07-1.26-.7-3.72-1.52-7.42-2.46l-6.9-1.73c-4.4-1.09-7.65-2.3-9.74-3.66-3.72-2.34-5.59-5.6-5.59-9.73,0-4.9,1.75-8.84,5.28-11.87,3.52-3.03,8.26-4.53,14.2-4.53,7.77,0,13.39,2.29,16.83,6.84,2.15,2.9,3.2,6.02,3.13,9.35h-8.19c-.16-1.94-.86-3.73-2.08-5.35-2-2.27-5.45-3.41-10.37-3.41-3.28,0-5.76.63-7.45,1.87-1.69,1.26-2.53,2.91-2.53,4.97,0,2.25,1.11,4.06,3.33,5.41,1.29.8,3.18,1.5,5.69,2.11l5.73,1.39c6.24,1.52,10.42,2.99,12.53,4.4,3.38,2.21,5.07,5.7,5.07,10.46s-1.74,8.57-5.23,11.91c-3.5,3.35-8.8,5.03-15.93,5.03-7.69,0-13.12-1.75-16.32-5.24-3.2-3.49-4.9-7.81-5.13-12.95Z"/>
      <path class="cls-1" d="m3043.24,149.82c2.72-3.33,6.27-5.01,10.64-5.01,3.91,0,7.21,1.56,9.88,4.7,2.67,3.12,4.01,7.96,4.01,14.5s-1.3,11.41-3.89,14.86c-2.59,3.47-5.89,5.2-9.91,5.2-5.17,0-8.94-1.87-11.29-5.6-2.34-3.73-3.51-8.36-3.51-13.89,0-6.5,1.36-11.41,4.07-14.76Zm-7.47-4.3c-3.84,5.51-5.76,12.02-5.76,19.54,0,8.04,2.1,14.48,6.32,19.32,4.21,4.84,9.19,7.26,14.95,7.26,3.56,0,6.72-.7,9.5-2.11,2.76-1.43,5.15-3.71,7.18-6.9v7.18h7.81v-71.07h-8.34v26.08c-1.95-2.4-3.7-4.1-5.25-5.07-2.68-1.66-5.98-2.49-9.94-2.49-7.12,0-12.62,2.74-16.46,8.27Z"/>
      <path class="cls-1" d="m3088.38,138.16h8.87v34.29c0,2.63.42,4.78,1.26,6.46,1.54,3.09,4.42,4.63,8.63,4.63,6.05,0,10.16-2.71,12.34-8.12,1.19-2.88,1.79-6.86,1.79-11.91v-25.35h8.68v51.64h-8.19l.08-7.62c-1.12,1.96-2.52,3.62-4.19,4.97-3.31,2.69-7.33,4.04-12.06,4.04-7.36,0-12.37-2.46-15.04-7.37-1.45-2.63-2.17-6.15-2.17-10.55v-35.11Z"/>
      <path class="cls-1" d="m3201.9,117.03c8.97,0,15.93,2.36,20.89,7.09,4.94,4.72,7.7,10.1,8.24,16.11h-9.34c-1.07-4.57-3.18-8.19-6.34-10.86-3.17-2.67-7.61-4-13.33-4-6.98,0-12.61,2.46-16.9,7.35-4.3,4.89-6.45,12.42-6.45,22.53,0,8.31,1.94,15.03,5.81,20.19,3.88,5.16,9.66,7.73,17.33,7.73,7.08,0,12.46-2.72,16.15-8.15,1.97-2.86,3.43-6.61,4.39-11.28h9.36c-.85,7.45-3.61,13.72-8.31,18.76-5.62,6.08-13.2,9.1-22.75,9.1-8.23,0-15.14-2.49-20.73-7.47-7.36-6.59-11.04-16.76-11.04-30.53,0-10.44,2.76-19.01,8.3-25.7,5.98-7.26,14.22-10.9,24.72-10.9Z"/>
      <path class="cls-1" d="m3252.84,168.83c1.58-.91,3.94-1.56,7.1-1.98l5.25-.69c1.61-.19,3.25-.51,4.92-.95,1.67-.46,3.03-1.01,4.1-1.7v6.99c0,5.33-2.41,9.18-7.24,11.53-2.86,1.43-5.81,2.13-8.87,2.13-2.5,0-4.68-.72-6.51-2.17-1.83-1.45-2.74-3.43-2.74-5.94,0-3.3,1.33-5.71,4-7.22Zm-8.58-3.71c-2.99,2.63-4.48,6.34-4.48,11.14,0,4.36,1.51,8,4.55,10.91,3.03,2.9,6.95,4.36,11.73,4.36,3.99,0,7.64-.86,10.95-2.55,3.3-1.71,5.85-3.71,7.61-6.04.3,2.06.79,3.66,1.5,4.78,1.35,2.11,3.52,3.18,6.51,3.18,1.22,0,2.18-.04,2.9-.15.71-.1,1.73-.32,3.09-.72v-6.4c-.55.1-1.07.17-1.54.21-.49.06-.91.08-1.3.08-1.19,0-1.97-.27-2.33-.82-.37-.55-.56-1.28-.56-2.17v-29.75c0-4.88-1.88-8.48-5.64-10.8-3.8-2.3-8.73-3.47-14.81-3.47-5.24,0-9.84,1.24-13.81,3.73-3.96,2.5-6.04,6.91-6.19,13.3h8.1c.32-2.67,1.02-4.69,2.08-6.04,1.9-2.44,5.12-3.66,9.64-3.66,3.92,0,6.93.67,9.05,2,2.09,1.33,3.15,3.49,3.15,6.44,0,1.45-.19,2.55-.58,3.31-.67,1.43-2,2.27-3.99,2.51l-13.84,1.73c-4.86.61-8.78,2.23-11.77,4.88Z"/>
      <path class="cls-1" d="m3297.08,189.8v-51.64h8.25v7.33c2.44-3.03,5.03-5.2,7.76-6.51,2.73-1.31,5.76-1.98,9.12-1.98,7.32,0,12.28,2.55,14.85,7.68,1.41,2.78,2.12,6.78,2.12,12v33.12h-8.83v-32.55c0-3.14-.47-5.68-1.39-7.62-1.54-3.2-4.34-4.82-8.39-4.82-2.06,0-3.75.21-5.07.63-2.38.71-4.47,2.11-6.27,4.25-1.45,1.7-2.39,3.47-2.83,5.28-.43,1.81-.65,4.42-.65,7.79v27.05h-8.68Z"/>
      <path class="cls-1" d="m3362.64,168.83c1.57-.91,3.93-1.56,7.09-1.98l5.25-.69c1.61-.19,3.26-.51,4.92-.95,1.67-.46,3.04-1.01,4.11-1.7v6.99c0,5.33-2.42,9.18-7.24,11.53-2.86,1.43-5.82,2.13-8.88,2.13-2.51,0-4.68-.72-6.51-2.17-1.83-1.45-2.75-3.43-2.75-5.94,0-3.3,1.33-5.71,4.01-7.22Zm-8.58-3.71c-2.99,2.63-4.5,6.34-4.5,11.14,0,4.36,1.52,8,4.56,10.91,3.04,2.9,6.95,4.36,11.74,4.36,3.98,0,7.63-.86,10.94-2.55,3.31-1.71,5.85-3.71,7.62-6.04.28,2.06.79,3.66,1.5,4.78,1.34,2.11,3.52,3.18,6.51,3.18,1.22,0,2.19-.04,2.89-.15.71-.1,1.73-.32,3.09-.72v-6.4c-.54.1-1.07.17-1.54.21-.49.06-.92.08-1.3.08-1.19,0-1.96-.27-2.34-.82-.36-.55-.54-1.28-.54-2.17v-29.75c0-4.88-1.89-8.48-5.65-10.8-3.79-2.3-8.72-3.47-14.8-3.47-5.24,0-9.85,1.24-13.81,3.73-3.97,2.5-6.04,6.91-6.2,13.3h8.11c.31-2.67,1.01-4.69,2.07-6.04,1.89-2.44,5.11-3.66,9.65-3.66,3.92,0,6.93.67,9.04,2,2.1,1.33,3.15,3.49,3.15,6.44,0,1.45-.19,2.55-.57,3.31-.68,1.43-2.01,2.27-4,2.51l-13.84,1.73c-4.86.61-8.78,2.23-11.76,4.88Z"/>
      <path class="cls-1" d="m3416.45,149.82c2.71-3.33,6.26-5.01,10.62-5.01,3.92,0,7.22,1.56,9.9,4.7,2.66,3.12,3.99,7.96,3.99,14.5s-1.3,11.41-3.88,14.86c-2.59,3.47-5.89,5.2-9.9,5.2-5.17,0-8.93-1.87-11.29-5.6-2.34-3.73-3.52-8.36-3.52-13.89,0-6.5,1.36-11.41,4.09-14.76Zm-7.48-4.3c-3.85,5.51-5.77,12.02-5.77,19.54,0,8.04,2.11,14.48,6.32,19.32,4.21,4.84,9.19,7.26,14.94,7.26,3.57,0,6.73-.7,9.5-2.11,2.76-1.43,5.16-3.71,7.19-6.9v7.18h7.81v-71.07h-8.34v26.08c-1.96-2.4-3.71-4.1-5.25-5.07-2.68-1.66-5.98-2.49-9.94-2.49-7.13,0-12.62,2.74-16.46,8.27Z"/>
      <path class="cls-1" d="m3472.42,168.83c1.57-.91,3.94-1.56,7.09-1.98l5.26-.69c1.61-.19,3.24-.51,4.91-.95,1.67-.46,3.04-1.01,4.1-1.7v6.99c0,5.33-2.4,9.18-7.23,11.53-2.87,1.43-5.82,2.13-8.87,2.13-2.51,0-4.69-.72-6.51-2.17-1.83-1.45-2.74-3.43-2.74-5.94,0-3.3,1.33-5.71,4-7.22Zm-8.58-3.71c-2.99,2.63-4.49,6.34-4.49,11.14,0,4.36,1.51,8,4.55,10.91,3.05,2.9,6.95,4.36,11.74,4.36,3.98,0,7.64-.86,10.94-2.55,3.32-1.71,5.85-3.71,7.62-6.04.3,2.06.78,3.66,1.5,4.78,1.35,2.11,3.51,3.18,6.51,3.18,1.22,0,2.18-.04,2.89-.15.7-.1,1.73-.32,3.09-.72v-6.4c-.54.1-1.06.17-1.54.21-.48.06-.91.08-1.3.08-1.2,0-1.97-.27-2.34-.82-.37-.55-.55-1.28-.55-2.17v-29.75c0-4.88-1.89-8.48-5.64-10.8-3.8-2.3-8.73-3.47-14.8-3.47-5.25,0-9.86,1.24-13.82,3.73-3.97,2.5-6.04,6.91-6.2,13.3h8.1c.31-2.67,1.01-4.69,2.07-6.04,1.9-2.44,5.11-3.66,9.65-3.66,3.91,0,6.93.67,9.04,2,2.11,1.33,3.16,3.49,3.16,6.44,0,1.45-.2,2.55-.58,3.31-.68,1.43-2.01,2.27-4,2.51l-13.84,1.73c-4.86.61-8.77,2.23-11.76,4.88Z"/>
    </g>
  </g>
</svg>