<?xml version="1.0" encoding="UTF-8"?>
<svg xmlns="http://www.w3.org/2000/svg" viewBox="0 0 318.14 177.94">
  <defs>
    <style>
      .cls-1 {
        fill: #1d1d1b;
        stroke-width: 0px;
      }
    </style>
  </defs>
  <g id="Calque_1" data-name="Calque 1">
    <path class="cls-1" d="m64.57,54.77c.19,10.42.19,57.99,0,68.41-.03,1.46-.05,2.99-.08,4.62-.9-.61-1.83-1.23-2.76-1.86-.86-.59-1.73-1.18-2.61-1.78-.94-.69-1.9-1.4-2.86-2.1-1.88-1.4-3.69-2.78-5.26-4-3.15-2.44-5.36-4.22-5.36-4.22,0,0,2.55,1.25,6.09,3.08,1.77.91,3.79,1.97,5.85,3.08,1.04.57,2.08,1.14,3.11,1.7l.09.05h.02s.04.02.04.02l.08.02s.09.02.13.03c.07.01.12.01.16,0-.04-.17-.06-.27-.08-.33-.19-6.25-.19-58.75,0-64.99.02-.07.04-.17.08-.34-.03,0-.08,0-.16,0-.04,0-.08.01-.13.03l-.08.02h-.04s-.02.02-.02.02l-.09.05c-1.03.56-2.07,1.13-3.11,1.7-2.07,1.11-4.08,2.17-5.85,3.08-3.54,1.82-6.09,3.08-6.09,3.08,0,0,2.21-1.79,5.36-4.22,1.57-1.22,3.38-2.6,5.26-4,.96-.7,1.91-1.41,2.86-2.1.88-.6,1.75-1.2,2.61-1.78.94-.63,1.86-1.25,2.76-1.86.03,1.63.05,3.15.08,4.62h0Z"/>
    <path class="cls-1" d="m86.38,58.63c.19,8.17.19,52.51,0,60.68-.03,1.4-.06,2.86-.09,4.41-.91-.35-1.83-.71-2.77-1.08-.45-.18-.9-.35-1.35-.53l-.33-.13-.26-.11-.37-.16c-.96-.43-1.94-.86-2.91-1.29-1.92-.87-3.76-1.73-5.37-2.5-3.22-1.53-5.49-2.68-5.49-2.68,0,0,2.48.55,5.94,1.41,1.73.43,3.71.93,5.74,1.47,1.03.28,2.06.57,3.07.85l.38.11.09.03h.06c.05,0,.09,0,.13,0,.08,0,.13-.02.16-.03-.04-.15-.07-.24-.08-.3-.19-6.86-.19-52.75,0-59.6.02-.06.05-.15.08-.3-.04-.01-.09-.02-.16-.03-.04,0-.08,0-.13,0h-.04s-.02,0-.02,0l-.09.03-.38.11c-1.01.28-2.04.56-3.07.85-2.03.54-4.01,1.05-5.74,1.47-3.46.85-5.94,1.41-5.94,1.41,0,0,2.27-1.14,5.49-2.68,1.61-.77,3.45-1.63,5.37-2.5.97-.43,1.95-.87,2.91-1.29l.37-.16.26-.11.33-.13c.46-.18.91-.36,1.35-.54.94-.37,1.86-.72,2.77-1.08.03,1.55.06,3.01.09,4.41h0Z"/>
    <path class="cls-1" d="m108.19,61.04c.19,9.57.19,46.28,0,55.85-.01.55-.02,1.11-.03,1.72-.88-.16-1.78-.33-2.7-.51-.44-.09-.89-.17-1.34-.26-.25-.06-.5-.11-.75-.17-.96-.22-1.94-.46-2.9-.71-1.93-.49-3.82-1-5.48-1.47-3.32-.93-5.73-1.68-5.73-1.68,0,0,2.52.06,5.96.23,1.72.09,3.68.2,5.66.35.99.07,2,.16,2.98.25.24.02.47.04.7.07.04,0,.07-.02.1-.03.05-.02.09-.04.11-.05-.01-.04-.02-.07-.03-.11-.19-3.79-.19-47.33,0-51.13,0-.03.02-.07.03-.11-.02-.02-.06-.03-.11-.05-.03,0-.06-.02-.1-.03-.23.02-.47.04-.7.07-.98.09-1.99.18-2.98.25-1.99.15-3.94.26-5.66.35-3.45.17-5.96.23-5.96.23,0,0,2.41-.75,5.73-1.68,1.66-.47,3.55-.98,5.48-1.47.97-.25,1.94-.48,2.9-.71.25-.06.5-.12.75-.17.45-.09.9-.17,1.34-.26.92-.17,1.82-.34,2.7-.51.01.62.02,1.17.03,1.72h0Z"/>
    <g>
      <path class="cls-1" d="m164.82,105.84h-11.07v-3.46h3.89v-27.66h-3.89v-3.46h15c2.68,0,4.7.77,6.07,2.31,1.37,1.54,2.05,3.81,2.05,6.81v2.77c0,2.51-.47,4.51-1.4,6.01-.94,1.5-2.31,2.46-4.13,2.9l3.46,10.33h4.06v3.46h-7l-4.5-13.49h-5.79v10.03h3.24v3.46Zm-3.24-16.86h6.79c1.73,0,2.92-.43,3.59-1.3.66-.86.99-2.38.99-4.54v-2.81c0-2.1-.33-3.57-.99-4.39-.66-.82-1.86-1.23-3.59-1.23h-6.79v14.26Z"/>
      <path class="cls-1" d="m182.71,105.84v-3.46h6.48v-27.66h-6.48v-3.46h16.9v3.46h-6.48v27.66h6.48v3.46h-16.9Z"/>
      <path class="cls-1" d="m203.89,105.84v-3.46h3.89v-27.66h-3.89v-3.46h11.58v3.46h-3.76v10.5h12.28v-10.5h-3.76v-3.46h11.58v3.46h-3.89v27.66h3.89v3.46h-11.58v-3.46h3.76v-13.62h-12.28v13.62h3.76v3.46h-11.58Z"/>
      <path class="cls-1" d="m247.5,102.38v3.46h-11.11v-3.46h3.89v-27.66h-3.89v-3.46h9.21l11.37,30.56v-27.1h-3.76v-3.46h11.11v3.46h-3.89v31.12h-5.62l-11.07-29.82v26.37h3.76Z"/>
    </g>
  </g>
  <g id="Calque_2" data-name="Calque 2">
    <path class="cls-1" d="m142.2,106.27c-3.49,0-6.1-.96-7.84-2.88-1.74-1.92-2.62-4.78-2.62-8.58v-12.36c0-3.86.88-6.77,2.64-8.71,1.76-1.94,4.38-2.92,7.87-2.92,3.26,0,7.5.43,7.5.43v3.61s-5.41-.58-7.54-.58c-2.33,0-4,.63-5.01,1.9-1.01,1.27-1.51,3.36-1.51,6.27v12.36c0,2.85.5,4.9,1.51,6.14,1.01,1.24,2.68,1.86,5.01,1.86,2.13,0,7.54-.61,7.54-.61v3.64s-4.29.43-7.54.43Z"/>
  </g>
</svg>